<?xml version="1.0" standalone="no"?>
<!DOCTYPE svg PUBLIC "-//W3C//DTD SVG 1.1//EN" "http://www.w3.org/Graphics/SVG/1.1/DTD/svg11.dtd" >
<!--
2013-9-30: Created.
-->
<svg>
<metadata>
Created by iconfont
</metadata>
<defs>

<font id="iconfont" horiz-adv-x="1024" >
  <font-face
    font-family="iconfont"
    font-weight="500"
    font-stretch="normal"
    units-per-em="1024"
    ascent="896"
    descent="-128"
  />
    <missing-glyph />
    
    <glyph glyph-name="icoyuan" unicode="&#58886;" d="M323.504 287.865c0-104.128 84.413-188.543 188.543-188.543s188.543 84.413 188.543 188.543c0 104.128-84.413 188.543-188.543 188.543-104.128 0-188.543-84.413-188.543-188.543z"  horiz-adv-x="1024" />

    
    <glyph glyph-name="yuan" unicode="&#58892;" d="M521.547927 628.947381c-165.65958 0-300.425229-134.765649-300.425229-300.425229 0-165.65958 134.765649-300.425229 300.425229-300.425229 165.65958 0 300.425229 134.765649 300.425229 300.425229C821.973156 494.181732 687.207507 628.947381 521.547927 628.947381zM521.547927 50.476779c-153.374985 0-278.045374 124.670388-278.045374 278.045374 0 153.374985 124.670388 278.045374 278.045374 278.045374 153.253356 0 278.045374-124.670388 278.045374-278.045374C799.593301 175.147167 674.801283 50.476779 521.547927 50.476779z"  horiz-adv-x="1024" />

    
    <glyph glyph-name="37tag" unicode="&#58983;" d="M867.2 347.2C816 398.4 425.6 788.8 425.6 788.8L113.6 788.8l0-312 441.6-441.6c0 0 51.2-51.2 104 0l208 208C867.2 243.2 920 294.4 867.2 347.2M321.6 580.8c-28.8-28.8-75.2-28.8-104 0-28.8 28.8-28.8 75.2 0 104 28.8 28.8 75.2 28.8 104 0C350.4 656 350.4 609.6 321.6 580.8"  horiz-adv-x="1024" />

    
    <glyph glyph-name="github" unicode="&#59145;" d="M512 883.36c-282.752 0-512-229.216-512-512 0-226.208 146.72-418.144 350.144-485.824 25.6-4.736 35.008 11.104 35.008 24.64 0 12.192-0.48 52.544-0.704 95.328-142.464-30.976-172.512 60.416-172.512 60.416-23.296 59.168-56.832 74.912-56.832 74.912-46.464 31.776 3.52 31.136 3.52 31.136 51.392-3.616 78.464-52.768 78.464-52.768 45.664-78.272 119.776-55.648 148.992-42.56 4.576 33.088 17.856 55.68 32.512 68.48-113.728 12.928-233.28 56.864-233.28 253.024 0 55.904 20 101.568 52.768 137.44-5.312 12.896-22.848 64.96 4.96 135.488 0 0 43.008 13.76 140.832-52.48 40.832 11.36 84.64 17.024 128.16 17.248 43.488-0.192 87.328-5.888 128.256-17.248 97.728 66.24 140.64 52.48 140.64 52.48 27.872-70.528 10.336-122.592 5.024-135.488 32.832-35.84 52.704-81.536 52.704-137.44 0-196.64-119.776-239.936-233.792-252.64 18.368-15.904 34.72-47.04 34.72-94.816 0-68.512-0.608-123.648-0.608-140.512 0-13.632 9.216-29.6 35.168-24.576 203.328 67.776 349.856 259.616 349.856 485.76 0 282.784-229.248 512-512 512z"  horiz-adv-x="1024" />

    
    <glyph glyph-name="yun" unicode="&#59277;" d="M769.877767 72.398146l-515.746324 0c-106.647949 0-193.356776 86.773296-193.356776 193.421244 0 106.631576 86.708827 193.356776 193.356776 193.356776 7.14677 0 14.278191-0.400113 21.537526-1.231037 0 0.415462 0 0.831948 0 1.231037 0 130.37535 105.97666 236.431827 236.335636 236.431827 130.37535 0 236.431827-106.056478 236.431827-236.431827 0-0.400113 0-0.815575 0-1.231037 7.179516 0.831948 14.309914 1.231037 21.441335 1.231037 106.663298 0 193.373149-86.7252 193.373149-193.356776 0-32.825616-8.442276-65.395406-24.431435-94.03263-5.78782-10.377348-18.851347-14.07046-29.212322-8.346085-10.360975 5.835915-14.102183 18.914792-8.266267 29.275767 12.375865 22.288632 19.010983 47.567365 19.010983 73.102948 0 95.79067-91.202165 171.70771-189.791577 145.037281-6.92369-1.902326-14.406105-0.176009-19.778462 4.52506-5.40408 4.749164-8.058536 11.879562-7.163143 18.947538 1.24741 9.449209 1.838881 17.364483 1.838881 24.846898 0 106.647949-86.789669 193.452967-193.452967 193.452967-106.647949 0-193.356776-86.805018-193.356776-193.452967 0-7.483438 0.511653-15.397688 1.759063-24.846898 0.87902-7.066953-1.759063-14.198374-7.179516-18.947538-5.372358-4.701069-12.791327-6.460132-19.763113-4.52506-98.509594 26.557866-189.791577-49.246611-189.791577-145.037281 0-82.935897 67.521836-150.474107 150.457734-150.474107l515.746324 0c11.879562 0 21.537526-9.561773 21.537526-21.441335S781.757329 72.398146 769.877767 72.398146L769.877767 72.398146z"  horiz-adv-x="1024" />

    
    <glyph glyph-name="iconset0248" unicode="&#59027;" d="M938.666667 469.333333l0 85.333333c0 46.933333-38.4 85.333333-85.333333 85.333333L128 640c-46.933333 0-85.333333-38.4-85.333333-85.333333l0-341.333333c0-46.933333 38.4-85.333333 85.333333-85.333333l725.333333 0c46.933333 0 85.333333 38.4 85.333333 85.333333l0 85.333333c23.466667 0 42.666667 19.2 42.666667 42.666667l0 85.333333C981.333333 450.133333 962.133333 469.333333 938.666667 469.333333zM896 426.666667l0-85.333333 0-128c0-23.466667-19.2-42.666667-42.666667-42.666667L128 170.666667c-23.466667 0-42.666667 19.2-42.666667 42.666667L85.333333 554.666667c0 23.466667 19.2 42.666667 42.666667 42.666667l725.333333 0c23.466667 0 42.666667-19.2 42.666667-42.666667L896 426.666667z"  horiz-adv-x="1024" />

    
    <glyph glyph-name="iconset0249" unicode="&#59028;" d="M128 213.333333l213.333333 0L341.333333 554.666667 128 554.666667 128 213.333333zM938.666667 469.333333l0 85.333333c0 46.933333-38.4 85.333333-85.333333 85.333333L128 640c-46.933333 0-85.333333-38.4-85.333333-85.333333l0-341.333333c0-46.933333 38.4-85.333333 85.333333-85.333333l725.333333 0c46.933333 0 85.333333 38.4 85.333333 85.333333l0 85.333333c23.466667 0 42.666667 19.2 42.666667 42.666667l0 85.333333C981.333333 450.133333 962.133333 469.333333 938.666667 469.333333zM896 213.333333c0-23.466667-19.2-42.666667-42.666667-42.666667L128 170.666667c-23.466667 0-42.666667 19.2-42.666667 42.666667L85.333333 554.666667c0 23.466667 19.2 42.666667 42.666667 42.666667l725.333333 0c23.466667 0 42.666667-19.2 42.666667-42.666667L896 213.333333z"  horiz-adv-x="1024" />

    
    <glyph glyph-name="iconset0250" unicode="&#59029;" d="M938.666667 469.333333l0 85.333333c0 46.933333-38.4 85.333333-85.333333 85.333333L128 640c-46.933333 0-85.333333-38.4-85.333333-85.333333l0-341.333333c0-46.933333 38.4-85.333333 85.333333-85.333333l725.333333 0c46.933333 0 85.333333 38.4 85.333333 85.333333l0 85.333333c23.466667 0 42.666667 19.2 42.666667 42.666667l0 85.333333C981.333333 450.133333 962.133333 469.333333 938.666667 469.333333zM896 213.333333c0-23.466667-19.2-42.666667-42.666667-42.666667L128 170.666667c-23.466667 0-42.666667 19.2-42.666667 42.666667L85.333333 554.666667c0 23.466667 19.2 42.666667 42.666667 42.666667l725.333333 0c23.466667 0 42.666667-19.2 42.666667-42.666667L896 213.333333zM128 213.333333l384 0L512 554.666667 128 554.666667 128 213.333333z"  horiz-adv-x="1024" />

    
    <glyph glyph-name="iconset0251" unicode="&#59030;" d="M938.666667 469.333333l0 85.333333c0 46.933333-38.4 85.333333-85.333333 85.333333L128 640c-46.933333 0-85.333333-38.4-85.333333-85.333333l0-341.333333c0-46.933333 38.4-85.333333 85.333333-85.333333l725.333333 0c46.933333 0 85.333333 38.4 85.333333 85.333333l0 85.333333c23.466667 0 42.666667 19.2 42.666667 42.666667l0 85.333333C981.333333 450.133333 962.133333 469.333333 938.666667 469.333333zM896 426.666667l0-85.333333 0-128c0-23.466667-19.2-42.666667-42.666667-42.666667L128 170.666667c-23.466667 0-42.666667 19.2-42.666667 42.666667L85.333333 554.666667c0 23.466667 19.2 42.666667 42.666667 42.666667l725.333333 0c23.466667 0 42.666667-19.2 42.666667-42.666667L896 426.666667zM128 213.333333l554.666667 0L682.666667 554.666667 128 554.666667 128 213.333333z"  horiz-adv-x="1024" />

    
    <glyph glyph-name="iconset0252" unicode="&#59031;" d="M128 213.333333l725.333333 0L853.333333 554.666667 128 554.666667 128 213.333333zM938.666667 469.333333l0 85.333333c0 46.933333-38.4 85.333333-85.333333 85.333333L128 640c-46.933333 0-85.333333-38.4-85.333333-85.333333l0-341.333333c0-46.933333 38.4-85.333333 85.333333-85.333333l725.333333 0c46.933333 0 85.333333 38.4 85.333333 85.333333l0 85.333333c23.466667 0 42.666667 19.2 42.666667 42.666667l0 85.333333C981.333333 450.133333 962.133333 469.333333 938.666667 469.333333zM896 426.666667l0-85.333333 0-128c0-23.466667-19.2-42.666667-42.666667-42.666667L128 170.666667c-23.466667 0-42.666667 19.2-42.666667 42.666667L85.333333 554.666667c0 23.466667 19.2 42.666667 42.666667 42.666667l725.333333 0c23.466667 0 42.666667-19.2 42.666667-42.666667L896 426.666667z"  horiz-adv-x="1024" />

    
    <glyph glyph-name="yuncloud259" unicode="&#58894;" d="M0 164.540126c0-144.991797 108.542977-265.294814 251.051287-288.522719l50.254084-4.017405 497.135601 0L808.521006-126.612167l497.135601-1.387831 50.254084 4.017405C1498.419-100.754688 1606.961977 19.548329 1606.961977 164.540126c0 127.388259-83.854198 235.785148-200.943291 275.959198C1401.78215 692.792354 1189.809257 896 929.043154 896c-188.087595 0-350.755973-105.694272-428.474498-259.305228C463.827662 676.138384 410.651829 700.973251 351.486411 700.973251c-110.95342 0-200.870247-87.360297-200.870247-195.026749 0-28.121835 6.135673-54.855838 17.092232-79.033312C68.368928 379.142593 0 279.583994 0 164.540126zM251.051287 401.201799 226.946857 464.384622C221.32249 476.50988 218.473785 489.43862 218.473785 502.878665c0 52.445395 53.029745 130.383051 136.226549 130.383051 28.560097 0 62.014124-14.243527 81.15158-34.476639l78.522006-54.563663 66.761966 89.040302c75.600257 112.70647 203.134603 190.205863 346.9577 190.205863 202.842428 0 403.055281-193.346743 406.269205-386.620443l0-68.515015 70.633283-18.918325c79.617662-26.807048 133.012625-98.901205 133.012625-179.395392 0-93.276838-95.541194-210.1468-191.812825-225.485983l-44.191454 0-493.629502 0 0-0.58435-10.080034 0 0 0.58435L304.81147-55.467578 271.50353-52.838004c-96.271631 15.339183-202.623297 129.506527-202.623297 222.783365C68.880234 242.916044 131.040445 359.786006 251.051287 401.201799z"  horiz-adv-x="1607" />

    
    <glyph glyph-name="baojiaquotation" unicode="&#58938;" d="M553.011 133.765v98.55c0 13.363 10.844 24.197 24.197 24.197 47.688 0 73.626 48.896 77.22 145.428h-77.22c-13.363 0-24.197 10.844-24.197 24.197v208.077c0 13.363 10.844 24.197 24.197 24.197h205.885c13.363 0 24.197-10.844 24.197-24.197v-208.077c0-46.275-4.669-88.73-13.834-126.228-9.421-38.441-23.88-72.049-42.977-99.901-19.63-28.621-44.206-51.077-73.011-66.724-29.020-15.739-62.751-23.726-100.27-23.726-13.353 0.010-24.187 10.854-24.187 24.207zM240.906 256.522c-13.363 0-24.197-10.844-24.197-24.197v-98.55c0-13.363 10.834-24.197 24.197-24.197 37.499 0 71.25 7.987 100.25 23.726 28.815 15.647 53.391 38.093 73.021 66.724 19.098 27.853 33.556 61.46 42.977 99.922 9.175 37.499 13.834 79.954 13.834 126.208v208.077c0 13.363-10.844 24.197-24.197 24.197l-205.885 0c-13.363 0-24.197-10.844-24.197-24.197v-208.077c0-13.363 10.834-24.197 24.197-24.197h76.134c-3.553-96.543-29.123-145.439-76.134-145.439z"  horiz-adv-x="1024" />

    
    <glyph glyph-name="baojiaquotation2" unicode="&#58940;" d="M470.989 634.225v-98.55c0-13.363-10.834-24.197-24.197-24.197-47.688 0-73.626-48.906-77.22-145.439h77.22c13.363 0 24.197-10.844 24.197-24.197v-208.077c0-13.363-10.834-24.197-24.197-24.197h-205.885c-13.373 0-24.197 10.844-24.197 24.197v208.077c0 46.275 4.659 88.74 13.844 126.228 9.421 38.441 23.88 72.049 42.967 99.901 19.64 28.621 44.206 51.077 73.021 66.724 29.010 15.739 62.74 23.726 100.26 23.726 13.353-0 24.187-10.834 24.187-24.197zM783.094 511.478c13.363 0 24.197 10.844 24.197 24.197v98.55c0 13.363-10.834 24.197-24.197 24.197-37.509 0-71.24-7.987-100.25-23.726-28.815-15.647-53.391-38.103-73.032-66.724-19.087-27.853-33.546-61.46-42.967-99.912-9.175-37.499-13.834-79.964-13.834-126.218v-208.077c0-13.363 10.834-24.197 24.197-24.197h205.875c13.363 0 24.197 10.844 24.197 24.197v208.077c0 13.363-10.834 24.197-24.197 24.197l-76.114-0c3.543 96.532 29.102 145.439 76.124 145.439z"  horiz-adv-x="1024" />

    
    <glyph glyph-name="more" unicode="&#59017;" d="M245.578138 321.486224c-46.517453 0-84.362386 37.844933-84.362386 84.362386 0 46.520523 37.844933 84.367503 84.362386 84.367503 46.518476 0 84.36341-37.84698 84.36341-84.367503C329.941548 359.331157 292.096614 321.486224 245.578138 321.486224zM245.578138 449.354474c-23.986297 0-43.500746-19.516496-43.500746-43.50484 0-23.986297 19.514449-43.500746 43.500746-43.500746 23.986297 0 43.50177 19.514449 43.50177 43.500746C289.079908 429.837978 269.564435 449.354474 245.578138 449.354474zM523.411911 321.486224c-46.517453 0-84.362386 37.844933-84.362386 84.362386 0 46.520523 37.844933 84.367503 84.362386 84.367503 46.520523 0 84.367503-37.84698 84.367503-84.367503C607.779414 359.331157 569.932434 321.486224 523.411911 321.486224zM523.411911 449.354474c-23.985274 0-43.500746-19.516496-43.500746-43.50484 0-23.986297 19.514449-43.500746 43.500746-43.500746 23.988344 0 43.505863 19.514449 43.505863 43.500746C566.917774 429.837978 547.401278 449.354474 523.411911 449.354474zM801.246707 321.486224c-46.517453 0-84.362386 37.844933-84.362386 84.362386 0 46.520523 37.844933 84.367503 84.362386 84.367503 46.520523 0 84.367503-37.84698 84.367503-84.367503C885.61421 359.331157 847.76723 321.486224 801.246707 321.486224zM801.246707 449.354474c-23.985274 0-43.500746-19.516496-43.500746-43.50484 0-23.986297 19.514449-43.500746 43.500746-43.500746 23.988344 0 43.505863 19.514449 43.505863 43.500746C844.75257 429.837978 825.235051 449.354474 801.246707 449.354474z"  horiz-adv-x="1024" />

    
    <glyph glyph-name="rili" unicode="&#58998;" d="M832 640l-64 0 0-19.2c0-19.2-12.8-32-32-32S704 601.6 704 620.8L704 640 544 640l0-19.2c0-19.2-12.8-32-32-32S480 601.6 480 620.8L480 640 320 640l0-19.2c0-19.2-12.8-32-32-32S256 601.6 256 620.8L256 640 192 640C153.6 640 128 614.4 128 576l0-512c0-38.4 25.6-64 64-64l640 0c38.4 0 64 25.6 64 64L896 576C896 614.4 870.4 640 832 640zM864 89.6c0-32-25.6-57.6-57.6-57.6L217.6 32c-32 0-57.6 25.6-57.6 57.6L160 486.4c0 32 25.6 57.6 57.6 57.6l595.2 0c32 0 57.6-25.6 57.6-57.6L870.4 89.6zM512 601.6 512 601.6c-6.4 0-12.8 6.4-12.8 12.8L499.2 710.4c0 6.4 6.4 12.8 12.8 12.8l0 0c6.4 0 12.8-6.4 12.8-12.8l0-96C524.8 608 518.4 601.6 512 601.6zM288 601.6 288 601.6c-6.4 0-19.2 6.4-19.2 12.8L268.8 710.4c0 6.4 6.4 12.8 12.8 12.8l0 0c6.4 0 12.8-6.4 12.8-12.8l0-96C307.2 608 294.4 601.6 288 601.6zM736 601.6 736 601.6c-6.4 0-12.8 6.4-12.8 12.8L723.2 710.4c0 6.4 6.4 12.8 12.8 12.8l0 0c6.4 0 12.8-6.4 12.8-12.8l0-96C755.2 608 742.4 601.6 736 601.6zM313.6 352 288 352C288 384 294.4 409.6 320 428.8s44.8 32 76.8 32c32 0 51.2-6.4 70.4-25.6 19.2-19.2 25.6-38.4 25.6-70.4 0-19.2-6.4-38.4-12.8-57.6C467.2 288 448 268.8 428.8 243.2l-83.2-89.6 147.2 0L492.8 128 275.2 128l121.6 134.4C422.4 281.6 435.2 300.8 448 313.6c6.4 12.8 12.8 32 12.8 44.8 0 19.2-6.4 32-19.2 44.8C428.8 422.4 409.6 428.8 390.4 428.8S352 422.4 339.2 409.6 320 371.2 313.6 352zM544 448l204.8 0L576 121.6l-25.6 12.8 147.2 288L544 422.4 544 448z"  horiz-adv-x="1024" />

    
    <glyph glyph-name="more1" unicode="&#59143;" d="M512-90.157c-267.13 0-483.061 215.93-483.061 483.061s215.93 480.835 483.061 480.835c264.904 0 483.061-215.93 483.061-483.061s-218.157-480.835-483.061-480.835zM512 829.217c-240.417 0-438.539-195.896-438.539-438.539 0-240.417 195.896-436.313 438.539-436.313 240.417 0 438.539 195.896 438.539 438.539 0 240.417-198.122 436.313-438.539 436.313zM763.548 368.417h-503.096c-13.357 0-22.261 8.904-22.261 22.261s8.904 22.261 22.261 22.261h503.096c13.357 0 22.261-8.904 22.261-22.261s-11.13-22.261-22.261-22.261zM512 119.096c-13.357 0-22.261 8.904-22.261 22.261v500.87c0 13.357 8.904 22.261 22.261 22.261s22.261-8.904 22.261-22.261v-503.096c0-11.13-8.904-20.035-22.261-20.035z"  horiz-adv-x="1024" />

    
    <glyph glyph-name="morepress" unicode="&#58964;" d="M512.003 694.685c-171.314 0-310.692-139.361-310.692-310.675s139.378-310.692 310.692-310.692 310.687 139.378 310.687 310.693-139.373 310.674-310.687 310.674zM785.117 384.012c0-150.593-122.51-273.118-273.114-273.118-150.577 0-273.089 122.526-273.089 273.118 0 0 0 0 0 0s0 0 0 0.001c0 150.593 122.512 273.101 273.089 273.101 150.603 0 273.114-122.509 273.114-273.101 0 0 0 0 0-0.001 0 0 0 0 0 0zM605.597 437.332l-93.572-77.198-93.62 77.197-23.898-28.982 117.518-96.938 117.492 96.938z"  horiz-adv-x="1024" />

    
    <glyph glyph-name="more2" unicode="&#59207;" d="M513.004887 379.997849m-96.036263 0a93.849 93.849 0 1 0 192.072527 0 93.849 93.849 0 1 0-192.072527 0ZM801.1147 379.997849m-96.036263 0a93.849 93.849 0 1 0 192.072527 0 93.849 93.849 0 1 0-192.072527 0ZM224.895073 379.997849m-96.036263 0a93.849 93.849 0 1 0 192.072527 0 93.849 93.849 0 1 0-192.072527 0Z"  horiz-adv-x="1024" />

    
    <glyph glyph-name="iconmore" unicode="&#58884;" d="M120-40.256c-10.304 0-20.608 3.904-28.416 11.776-15.744 15.68-15.744 41.152 0 56.896L447.104 384 91.584 739.52c-15.744 15.68-15.744 41.152 0 56.896 15.68 15.744 41.152 15.744 56.896 0l384-384c15.744-15.68 15.744-41.152 0-56.896l-384-384C140.608-36.352 130.304-40.256 120-40.256zM520-40.256c-10.304 0-20.608 3.904-28.416 11.776-15.744 15.68-15.744 41.152 0 56.896L847.104 384 491.584 739.52c-15.744 15.68-15.744 41.152 0 56.896 15.68 15.744 41.152 15.744 56.896 0l384-384c15.744-15.68 15.744-41.152 0-56.896l-384-384C540.608-36.352 530.304-40.256 520-40.256z"  horiz-adv-x="1024" />

    
    <glyph glyph-name="biaoqiantag48-copy" unicode="&#58905;" d="M987.194 441.892l-355.364 355.3c-16.639 16.639-36.861 27.134-58.171 32.509l2.304 2.304-63.995 63.995h-511.959v-511.959l63.995-63.995 2.304 2.304c5.376-21.246 15.871-41.533 32.509-58.171l355.364-355.364c49.084-49.084 128.63-49.084 177.65 0l355.364 355.364c49.020 49.084 49.020 128.63 0 177.714zM853.893 308.591l-266.539-266.539c-24.51-24.51-64.315-24.51-88.825 0l-266.475 266.539c-9.791 9.855-14.591 22.206-16.575 34.941l-23.486-23.486-63.995 127.99v319.975h319.975l127.99-63.995-23.486-23.486c12.735-1.984 25.15-6.719 34.941-16.575l266.539-266.539c24.51-24.51 24.51-64.251-0.064-88.825zM319.983 640.020c-35.325 0-63.995-28.67-63.995-63.995s28.67-63.995 63.995-63.995c35.325 0 63.995 28.67 63.995 63.995 0 35.325-28.67 63.995-63.995 63.995z"  horiz-adv-x="1024" />

    
    <glyph glyph-name="weibiaoti2fuzhi12" unicode="&#58921;" d="M768 230.4c-6.4 6.4-12.8 12.8-19.2 12.8-19.2 0-32-12.8-32-32 0-12.8 6.4-19.2 12.8-25.6l0 0 0 0c76.8-57.6 128-147.2 134.4-249.6l57.6 0C915.2 57.6 857.6 160 768 230.4M524.8 339.2c-115.2 0-211.2 96-211.2 211.2C307.2 672 403.2 768 524.8 768c115.2 0 211.2-96 211.2-211.2C736 435.2 640 339.2 524.8 339.2zM800 550.4c0 153.6-121.6 281.6-281.6 281.6C371.2 832 243.2 710.4 243.2 550.4c0-102.4 57.6-192 140.8-243.2C224 262.4 108.8 115.2 102.4-64l57.6 0C166.4 121.6 320 268.8 505.6 275.2l6.4 0c6.4 0 6.4 0 12.8 0C678.4 275.2 800 396.8 800 550.4z"  horiz-adv-x="1024" />

    
    <glyph glyph-name="zhuye" unicode="&#58882;" d="M1012.646039 436.69265 535.153 887.123741c-10.824779 11.426156-28.264701 12.027532-39.690857 0.601377L12.556714 437.895403c-7.216519-6.013766-12.027532-16.237169-12.027532-27.663325 0-19.244052 13.831662-34.278468 30.670208-34.278468l108.849169 0 0-354.812208c0-40.89361 15.034416-78.178961 39.089481-105.240909 24.055065-27.061948 57.130779-43.900494 93.814753-43.900494l117.268442 0 0 144.33039 0 272.423611c0 10.824779 4.209636 21.048182 10.223403 28.264701 6.615143 7.216519 15.635792 12.027532 25.257818 12.027532l174.399221 0c9.622026 0 18.642675-4.811013 25.257818-12.027532 6.615143-7.216519 10.223403-17.439922 10.223403-28.264701l0-416.754 159.966182 0 3.60826 0 4.209636 0c22.250935 0 42.69774 10.223403 57.732156 27.061948 15.034416 16.838545 24.055065 39.690857 24.055065 64.948675L885.154195 375.953611 992.800611 375.953611l0 0c9.020649 0 17.439922 4.209636 23.453688 12.027532C1027.079078 403.015559 1025.274949 424.665117 1012.646039 436.69265zM178.536662 443.307793l1.202753 0 0-0.601377C179.739415 442.706416 179.138039 442.706416 178.536662 443.307793z"  horiz-adv-x="1024" />

    
    <glyph glyph-name="home" unicode="&#58895;" d="M512 831.949c60.496 0 119.154-11.837 174.346-35.181 53.336-22.559 101.246-54.865 142.401-96.020s73.461-89.067 96.020-142.401c23.345-55.192 35.181-113.851 35.181-174.346 0-60.495-11.837-119.154-35.181-174.346-22.559-53.335-54.865-101.246-96.020-142.401s-89.067-73.461-142.401-96.020c-55.192-23.345-113.851-35.181-174.346-35.181s-119.154 11.837-174.346 35.181c-53.336 22.559-101.246 54.865-142.401 96.020s-73.461 89.067-96.020 142.401c-23.345 55.192-35.181 113.851-35.181 174.346 0 60.496 11.837 119.154 35.181 174.346 22.559 53.336 54.865 101.246 96.020 142.401s89.067 73.461 142.401 96.020c55.192 23.345 113.85 35.181 174.346 35.181M512 883.115c-275.653 0-499.115-223.461-499.115-499.115s223.461-499.115 499.115-499.115 499.115 223.461 499.115 499.115-223.461 499.115-499.115 499.115zM786.311 355.326c-9.081-9.135-23.858-9.135-32.992 0l-241.155 241.909-201.662-202.307h14.669c25.791 0 46.693-21.064 46.693-46.964v-24.985h0.054l0.161-141.319c1.558-15.368 7.469-19.452 24.502-20.634 19.773 1.774 21.977 8.705 22.138 34.819l-0.054 58.57c0.216 25.685 21.011 46.533 46.641 46.533h23.32v0.591l46.748 0.107v-0.698h23.32c25.791 0 46.749-21.011 46.749-46.964v-24.985h0.053l0.053-28.48 0.053 6.824c0-36.539 0-44.545 22.998-46.318 23.482 1.934 23.697 10.156 23.697 46.318l-0.322-46.641h0.377l-0.215 188.336c0 12.95 10.478 23.481 23.373 23.481 12.897 0 23.32-10.531 23.32-23.481l0.162-163.35h-0.162v-24.933c0-25.953-20.902-47.016-46.693-47.016h-46.694c-25.522 0-46.049 20.579-46.586 46.103l-0.054 59.913-0.161 5.964c0-0.591 0.161-1.020 0.161-1.665l-0.053 30.573h-7.254l6.555-0.053 0.591-28.855c-1.182 22.999-6.502 27.942-28.694 28.855l-37.238-0.053c-20.903-0.966-26.115-5.749-27.297-26.006l0.053-42.826h-0.161v-24.933c0-25.953-20.903-47.016-46.749-47.016h-46.694c-25.469 0-45.941 20.525-46.479 46.049l-0.216 188.819-12.089-0.054 11.446-0.052 0.161-31.541c-0.537 25.738-4.46 30.682-28.211 31.595l-40.622-0.106c-6.555-0.485-13.219 1.503-18.163 6.555-9.135 9.134-9.135 24.019 0 33.207l256.094 256.899c0.591 0.698 0.86 1.612 1.505 2.256 9.134 9.188 23.911 9.188 33.046 0l0.377-0.376 257.599-258.405c9.137-9.189 9.137-24.073 0.002-33.262zM605.605 160.543l11.499 0.053-11.499 0.053v-0.106zM465.414 228.623l0.537 25.899h-0.591l0.054-25.899zM372.079 160.543l11.499 0.053-11.499 0.053v-0.106zM324.686 316.96c0.107-4.782 0.107-10.21 0.107-16.55l-0.107 16.55z"  horiz-adv-x="1024" />

    
    <glyph glyph-name="zhihu" unicode="&#59034;" d="M544.949 334.578s0 71.387-34.779 75.050c-34.779 3.663-142.775 0-142.775 0v219.654h161.078s-1.83 73.219-32.949 73.219h-261.755l43.93 117.148s-65.897-3.663-89.692-45.761-98.844-252.604-98.844-252.604 25.627-10.983 67.726 20.134c42.101 31.116 56.743 86.033 56.743 86.033l76.879 3.663 1.83-223.316s-133.621 1.83-161.078 0c-27.457-1.83-42.101-75.050-42.101-75.050h203.182s-18.307-124.47-69.557-214.164c-53.085-89.692-151.929-161.078-151.929-161.078s71.387-29.287 140.947 10.983c69.557 42.101 120.811 223.316 120.811 223.316l162.912-203.182s14.643 97.013-1.83 124.47c-18.307 27.457-113.49 137.283-113.49 137.283l-42.101-36.607 29.287 120.811h177.552zM587.050 707.99l-1.83-660.793h65.897l23.795-82.37 115.321 82.37h162.912v660.793h-366.091zM879.92 120.416h-76.879l-97.013-75.050-21.965 75.050h-20.134v512.527h215.991v-512.527z"  horiz-adv-x="1024" />

    
    <glyph glyph-name="tag" unicode="&#59055;" d="M1004.512 451.744l-160 256A127.968 127.968 0 0 1 736 767.904H128a128 128 0 0 1-128-128v-512a128 128 0 0 1 128-128h608c44.128 0 85.12 22.752 108.512 60.192l160 256a127.776 127.776 0 0 1 0 135.648z m-54.272-101.728l-160-256.064a63.616 63.616 0 0 0-54.24-30.048H128c-35.296 0-64 28.736-64 64v512c0 35.296 28.704 64 64 64h608a63.68 63.68 0 0 0 54.24-30.048l160-256a64.32 64.32 0 0 0 0-67.84zM736 479.904a96 96 0 1 1-0.064-191.936A96 96 0 0 1 736 479.904z m0-160.032a64 64 0 1 0 0 128 64 64 0 0 0 0-128z"  horiz-adv-x="1024" />

    
    <glyph glyph-name="home-g" unicode="&#58950;" d="M511.803392 847.60576L21.641216 357.443584h154.353664V-85.03296h292.347904V231.020544h86.919168v-316.055552h292.347904V357.443584h154.355712L511.803392 847.60576z m296.30464-450.658304v-442.476544h-213.34016V270.524416h-165.924864v-316.055552H215.498752V396.947456h-98.48832l394.79296 394.79296 394.790912-394.79296h-98.486272z"  horiz-adv-x="1024" />

    
    <glyph glyph-name="rili1" unicode="&#58936;" d="M511.104 319.104m-65.536 0a65.536 65.536 0 1 1 131.072 0 65.536 65.536 0 1 1-131.072 0ZM750.208 319.104m-65.536 0a65.536 65.536 0 1 1 131.072 0 65.536 65.536 0 1 1-131.072 0ZM315.328 601.856c23.744 0 44.416 19.264 44.416 43.136V840.96c0 23.808-20.672 43.136-44.416 43.136a43.136 43.136 0 0 1-43.136-43.136v-196.032c0-23.872 19.328-43.136 43.136-43.136zM706.752 601.856c23.808 0 44.48 19.264 44.48 43.136V840.96c0 23.808-20.672 43.136-44.48 43.136a43.136 43.136 0 0 1-43.072-43.136v-196.032c0-23.872 19.328-43.136 43.136-43.136zM271.616 319.104m-65.536 0a65.536 65.536 0 1 1 131.072 0 65.536 65.536 0 1 1-131.072 0ZM270.464 79.552m-65.536 0a65.536 65.536 0 1 1 131.072 0 65.536 65.536 0 1 1-131.072 0ZM511.104 79.552m-65.536 0a65.536 65.536 0 1 1 131.072 0 65.536 65.536 0 1 1-131.072 0ZM876.032 775.488h-53.12c-1.6 0.256-3.072 0.96-4.736 0.96a33.28 33.28 0 1 1 0-66.624c1.664 0 3.008 0.64 4.544 0.896h56.384c24.768 0 45.696-20.928 45.696-45.76v-150.784H98.56V664.96c0 24.832 20.864 45.76 45.632 45.76h50.56c1.536-0.256 2.88-0.896 4.48-0.896a33.28 33.28 0 1 1 0 66.624c-1.6 0-3.008-0.64-4.608-0.96h-46.656A114.56 114.56 0 0 1 33.92 661.184v-663.04c0-62.848 49.472-114.304 112.256-114.304h729.92a114.56 114.56 0 0 1 114.112 114.304V661.12a114.56 114.56 0 0 1-114.112 114.304z m48.768-780.736a46.272 46.272 0 0 0-45.696-45.696H144.192a46.272 46.272 0 0 0-45.632 45.696V449.28h826.24v-454.528zM436.864 709.76c0.96 0 1.792 0.512 2.752 0.64h146.56c0.896-0.128 1.728-0.64 2.688-0.64s1.792 0.512 2.752 0.64h3.52v0.64c15.36 3.072 27.072 15.872 27.072 32.064s-11.776 29.056-27.072 32.064v0.32h-1.6c-1.6 0.256-3.008 0.96-4.672 0.96s-3.072-0.64-4.672-0.96H441.536c-1.6 0.256-3.008 0.96-4.672 0.96a33.28 33.28 0 0 1 0-66.624z"  horiz-adv-x="1024" />

    
    <glyph glyph-name="tag1" unicode="&#59082;" d="M602.050251-128c-36.020101 0-66.894472 15.437186-92.623115 36.020101L36.020101 381.427136C10.291457 407.155779 0 443.175879 0 484.341709l20.582915 272.723618C25.728643 818.81407 77.18593 870.271357 138.934673 875.417085L411.658291 896c41.165829 0 77.18593-10.291457 102.914573-36.020101l473.407035-473.407035c51.457286-51.457286 51.457286-133.788945 0-185.246231l-293.306532-293.306532c-25.728643-20.582915-56.603015-36.020101-92.623116-36.020101zM421.949749 844.542714h-5.145729l-272.723618-20.582915c-36.020101-5.145729-66.894472-36.020101-72.040201-72.040201L51.457286 479.19598c0-20.582915 5.145729-46.311558 25.728644-61.748744l473.407035-473.407035c30.874372-30.874372 82.331658-30.874372 113.20603 0l293.306533 293.306533c30.874372 30.874372 30.874372 82.331658 0 113.20603L478.552764 823.959799C463.115578 834.251256 442.532663 844.542714 421.949749 844.542714zM283.015075 504.924623c-30.874372 0-56.603015 10.291457-77.185929 30.874372-41.165829 41.165829-41.165829 113.20603 0 154.371859 20.582915 20.582915 46.311558 30.874372 77.185929 30.874372s56.603015-10.291457 77.18593-30.874372c41.165829-41.165829 41.165829-113.20603 0-154.371859-20.582915-20.582915-46.311558-30.874372-77.18593-30.874372z m0 164.663317c-15.437186 0-30.874372-5.145729-41.165829-15.437186-20.582915-20.582915-20.582915-56.603015 0-82.331659 20.582915-20.582915 61.748744-20.582915 82.331659 0 20.582915 20.582915 20.582915 56.603015 0 82.331659-10.291457 10.291457-25.728643 15.437186-41.16583 15.437186z"  horiz-adv-x="1026" />

    
    <glyph glyph-name="tag2" unicode="&#59338;" d="M128 860v-948c0-33 40.8-48.6 62.8-24l294.4 328.2c14.3 16 39.3 16 53.6 0L833.2-112c22-24.6 62.8-9 62.8 24V860c0 19.9-16.1 36-36 36H164c-19.9 0-36-16.1-36-36z"  horiz-adv-x="1024" />

    
    <glyph glyph-name="more3" unicode="&#59359;" d="M512 896C229.2 896 0 666.8 0 384s229.2-512 512-512 512 229.2 512 512S794.8 896 512 896zM256 312c-39.8 0-72 32.2-72 72s32.2 72 72 72 72-32.2 72-72-32.2-72-72-72z m256 0c-39.8 0-72 32.2-72 72s32.2 72 72 72 72-32.2 72-72-32.2-72-72-72z m256 0c-39.8 0-72 32.2-72 72s32.2 72 72 72 72-32.2 72-72-32.2-72-72-72z"  horiz-adv-x="1024" />

    
    <glyph glyph-name="sanjiaoxing1" unicode="&#58965;" d="M875.5632959999998 821.223946L875.5632960000003-42.8445509999998l-727.6361990000001 432.01531799999947L875.5632959999998 821.223946zM798.780539 92.05074200000013l-1.1368683772161603e-13 594.278935-500.4376629999997-297.1578870000003L798.780539 92.05074200000013z"  horiz-adv-x="1024" />

    
    <glyph glyph-name="tagcopy" unicode="&#58946;" d="M57.792529 838.207471L455.358413 895.026777l417.004959-417.004959-454.38519-454.38519L0.973223 440.641587 57.800992 838.207471z m405.850975-861.751008l455.900033 455.900033 96.966876-96.966876-455.900033-455.900033-96.966876 96.966876z m-39.428231 728.427901c31.024661-31.066975 48.601917-72.49243 48.601917-115.991273 0-44.539769-17.577256-85.965223-48.601917-117.040661-32.048661-31.058512-72.382413-48.66962-116.846017-48.66962s-85.829818 17.602645-116.846016 48.678083c-64.114248 64.207339-64.114248 168.816132 0 233.023471C222.571901 735.968264 262.905653 753.570909 307.369256 753.570909s85.829818-17.602645 116.846017-48.678083zM376.087273 519.777322c18.000397 19.269818 28.291174 42.398678 27.004826 69.378116 0 25.701554-10.290777 50.108298-28.291173 68.100231a96.425256 96.425256 0 0 1-68.176397 28.265786c-25.726942 0-50.159074-10.282314-68.167934-28.265786-37.304066-38.548099-37.304066-100.216595 0-137.478347 37.295603-35.966942 101.612959-35.966942 137.630678 0z"  horiz-adv-x="1024" />

    
    <glyph glyph-name="tag3" unicode="&#59914;" d="M234.666667 597.333333C199.253333 597.333333 170.666667 625.92 170.666667 661.333333S199.253333 725.333333 234.666667 725.333333 298.666667 696.746667 298.666667 661.333333 270.08 597.333333 234.666667 597.333333m678.826666-195.413333l-384 384C514.133333 801.28 492.8 810.666667 469.333333 810.666667H170.666667c-47.36 0-85.333333-37.973333-85.333334-85.333334v-298.666666c0-23.466667 9.386667-44.8 25.173334-60.16l383.573333-384c15.786667-15.36 37.12-25.173333 60.586667-25.173334 23.466667 0 44.8 9.813333 60.16 25.173334l298.666666 298.666666c15.786667 15.36 25.173333 36.693333 25.173334 60.16 0 23.893333-9.813333 45.226667-25.173334 60.586667z"  horiz-adv-x="1024" />

    
    <glyph glyph-name="WIFIxinhao-ji" unicode="&#58993;" d="M478.03605 400.993C358.18605 388.12 270.63805 302.238 247.01905 262.66c-14.787-24.778-6.69-56.847 18.085-71.633 8.393-5.008 17.616-7.393 26.726-7.393 17.787 0 35.132 9.092 44.91 25.479 10.072 16.874 71.244 79.269 152.452 87.991 68.809 7.376 137.709-25.217 204.772-96.912 19.715-21.063 52.775-22.166 73.843-2.459 21.071 19.711 22.175 52.771 2.468 73.843-112.98 120.767-221.263 137.027-292.239 129.417zM513.39305 195.251c-55.4 0-100.31-44.907-100.31-100.306s44.91-100.307 100.31-100.307c55.395 0 100.306 44.908 100.306 100.307S568.78805 195.251 513.39305 195.251zM1008.17105 545.15C840.37705 708.406 660.63005 784.783 473.93005 772.152c-108.92-7.369-220.504-46.655-322.681-113.614C72.00105 606.604 22.28105 554.175 11.11405 539.903c-17.783-22.72-13.815-55.605 8.907-73.387 9.568-7.49 20.923-11.122 32.191-11.122 15.49 0 30.817 6.865 41.107 20.017 7.055 8.749 50.226 53.609 118.01 97.563 61.02 39.57 157.938 88.2 273.119 95.15 154.619 9.298 306.324-57.237 450.861-197.862 20.684-20.125 53.752-19.669 73.873 1.012 20.122 20.682 19.671 53.757-1.011 73.876zM487.43005 588.956c-197.071-9.085-329.162-149.714-353.641-177.811-18.954-21.756-16.681-54.758 5.074-73.709 9.901-8.624 22.122-12.852 34.296-12.852 14.578 0 29.085 6.07 39.416 17.926 11.998 13.775 121.8 134.792 279.667 142.069 107.595 4.936 216.103-44.011 322.504-145.547 20.882-19.924 53.945-19.151 73.861 1.728 19.924 20.873 19.148 53.944-1.726 73.862C759.02805 536.63 624.62705 595.281 487.43005 588.956z"  horiz-adv-x="1024" />

    
    <glyph glyph-name="WIFIxinhao-ji1" unicode="&#58994;" d="M478.04147 400.993C358.19147 388.12 270.64347 302.238 247.02447 262.66c-14.787-24.778-6.69-56.847 18.085-71.633 8.393-5.008 17.616-7.393 26.726-7.393 17.787 0 35.132 9.092 44.91 25.479 10.072 16.874 71.244 79.269 152.452 87.991 68.809 7.376 137.709-25.217 204.772-96.912 19.715-21.063 52.775-22.166 73.843-2.459 21.071 19.711 22.175 52.771 2.468 73.843-112.98 120.767-221.263 137.027-292.239 129.417zM513.39847 195.251c-55.4 0-100.31-44.907-100.31-100.306s44.91-100.307 100.31-100.307c55.395 0 100.306 44.908 100.306 100.307S568.79347 195.251 513.39847 195.251zM513.60247 753.498c41.422 0 83.047-4.663 123.718-13.86 40.715-9.207 81.567-23.203 121.42-41.601 80.327-37.082 159.558-93.343 235.49-167.222 6.173-6.005 9.638-14.054 9.755-22.666 0.118-8.611-3.125-16.754-9.132-22.927-6.123-6.293-14.331-9.76-23.112-9.76-8.44 0-16.424 3.245-22.479 9.136-139.391 135.619-286.212 204.383-436.384 204.383-9.82 0-19.788-0.3-29.628-0.892-119.525-7.212-219.758-57.455-282.796-98.333-70.679-45.831-114.761-91.948-122.697-101.789l-0.092-0.115-0.09-0.116c-6.137-7.843-15.379-12.341-25.356-12.341-7.253 0-14.122 2.375-19.866 6.872-6.774 5.301-11.077 12.936-12.114 21.496-1.038 8.567 1.317 17.024 6.632 23.815 4.592 5.869 18.643 21.458 42.174 42.661 19.518 17.587 51.526 44.279 93.172 71.571 99.308 65.079 207.565 103.25 313.068 110.388a570.412 570.412 0 0 0 38.317 1.3m0 20c-13.192 0-26.403-0.448-39.667-1.345-108.92-7.369-220.504-46.655-322.681-113.614C72.00647 606.604 22.28647 554.175 11.11947 539.903c-17.783-22.72-13.815-55.605 8.907-73.387 9.568-7.49 20.923-11.122 32.191-11.122 15.49 0 30.817 6.865 41.107 20.017 7.055 8.749 50.226 53.609 118.01 97.563 61.02 39.57 157.938 88.2 273.119 95.15 9.484 0.57 18.963 0.855 28.424 0.855 144.784 0 286.767-66.718 422.438-198.717 10.155-9.881 23.299-14.801 36.426-14.801 13.611 0 27.205 5.286 37.447 15.813 20.121 20.68 19.67 53.755-1.012 73.875-155.874 151.659-322.079 228.349-494.574 228.349zM487.43547 588.956c-197.071-9.085-329.162-149.714-353.641-177.811-18.954-21.756-16.681-54.758 5.074-73.709 9.901-8.624 22.122-12.852 34.296-12.852 14.578 0 29.085 6.07 39.416 17.926 11.998 13.775 121.8 134.792 279.667 142.069 107.595 4.936 216.103-44.011 322.504-145.547 20.882-19.924 53.945-19.151 73.861 1.728 19.924 20.873 19.148 53.944-1.726 73.862C759.03347 536.63 624.63247 595.281 487.43547 588.956z"  horiz-adv-x="1024" />

    
    <glyph glyph-name="WIFIxinhao-ji2" unicode="&#58995;" d="M478.04147 400.993C358.19147 388.12 270.64347 302.238 247.02447 262.66c-14.787-24.778-6.69-56.847 18.085-71.633 8.393-5.008 17.616-7.393 26.726-7.393 17.787 0 35.132 9.092 44.91 25.479 10.072 16.874 71.244 79.269 152.452 87.991 68.809 7.376 137.709-25.217 204.772-96.912 19.715-21.063 52.775-22.166 73.843-2.459 21.071 19.711 22.175 52.771 2.468 73.843-112.98 120.767-221.263 137.027-292.239 129.417zM513.39847 195.251c-55.4 0-100.31-44.907-100.31-100.306s44.91-100.307 100.31-100.307c55.395 0 100.306 44.908 100.306 100.307S568.79347 195.251 513.39847 195.251zM513.60247 753.498c41.422 0 83.047-4.663 123.718-13.86 40.715-9.207 81.567-23.203 121.42-41.601 80.327-37.082 159.558-93.343 235.49-167.222 6.173-6.005 9.638-14.054 9.755-22.666 0.118-8.611-3.125-16.754-9.132-22.927-6.123-6.293-14.331-9.76-23.112-9.76-8.44 0-16.424 3.245-22.479 9.136-139.391 135.619-286.212 204.383-436.384 204.383-9.82 0-19.788-0.3-29.628-0.892-119.525-7.212-219.758-57.455-282.796-98.333-70.679-45.831-114.761-91.948-122.697-101.789l-0.092-0.115-0.09-0.116c-6.137-7.843-15.379-12.341-25.356-12.341-7.253 0-14.122 2.375-19.866 6.872-6.774 5.301-11.077 12.936-12.114 21.496-1.038 8.567 1.317 17.024 6.632 23.815 4.592 5.869 18.643 21.458 42.174 42.661 19.518 17.587 51.526 44.279 93.172 71.571 99.308 65.079 207.565 103.25 313.068 110.388a570.412 570.412 0 0 0 38.317 1.3m0 20c-13.192 0-26.403-0.448-39.667-1.345-108.92-7.369-220.504-46.655-322.681-113.614C72.00647 606.604 22.28647 554.175 11.11947 539.903c-17.783-22.72-13.815-55.605 8.907-73.387 9.568-7.49 20.923-11.122 32.191-11.122 15.49 0 30.817 6.865 41.107 20.017 7.055 8.749 50.226 53.609 118.01 97.563 61.02 39.57 157.938 88.2 273.119 95.15 9.484 0.57 18.963 0.855 28.424 0.855 144.784 0 286.767-66.718 422.438-198.717 10.155-9.881 23.299-14.801 36.426-14.801 13.611 0 27.205 5.286 37.447 15.813 20.121 20.68 19.67 53.755-1.012 73.875-155.874 151.659-322.079 228.349-494.574 228.349zM507.46047 569.417c124.91 0 247.921-56.949 365.62-169.265 6.23-5.945 9.772-13.961 9.974-22.571 0.202-8.609-2.962-16.782-8.913-23.017-6.142-6.438-14.425-9.984-23.325-9.984a32.108 32.108 0 0 0-22.257 8.921C723.27147 453.974 615.09747 504.918 507.04347 504.918c-5.217 0-10.504-0.122-15.718-0.361-69.944-3.224-138.851-27.45-204.808-72.003-50.943-34.413-83.092-70.104-89.016-76.906a32.27 32.27 0 0 0-24.337-11.064 32.217 32.217 0 0 0-21.159 7.932c-6.494 5.657-10.396 13.504-10.987 22.097-0.592 8.592 2.198 16.901 7.855 23.395 10.32 11.845 48.606 53.52 107.984 92.446 33.066 21.678 67.563 39.196 102.533 52.069 42.263 15.557 85.653 24.458 128.966 26.454 6.342 0.292 12.77 0.44 19.104 0.44m0 20c-6.668 0-13.343-0.154-20.025-0.462-197.071-9.085-329.162-149.714-353.641-177.811-18.954-21.756-16.681-54.758 5.074-73.709 9.901-8.624 22.122-12.852 34.296-12.852 14.578 0 29.085 6.07 39.416 17.926 11.998 13.775 121.8 134.792 279.667 142.069 4.925 0.226 9.868 0.339 14.797 0.339 102.744 0 206.177-48.998 307.708-145.886 10.121-9.656 23.104-14.451 36.064-14.451 13.779 0 27.533 5.419 37.797 16.179 19.924 20.873 19.148 53.944-1.726 73.862-121.627 116.066-249.18 174.796-379.427 174.796z"  horiz-adv-x="1024" />

    
    <glyph glyph-name="WIFIxinhao-ji3" unicode="&#58996;" d="M507.68547 382.573c37.787 0 75.655-8.221 112.553-24.436 46.959-20.636 92.526-54.356 135.435-100.222 12.144-12.985 11.461-33.431-1.523-45.576a32.12 32.12 0 0 0-22.015-8.694c-9.03 0-17.398 3.628-23.559 10.21-64.72 69.189-132.114 104.271-200.312 104.271-7.039 0-14.171-0.382-21.203-1.136-87.968-9.449-154.472-75.817-167.492-97.63-5.875-9.848-16.244-15.727-27.734-15.727a32.184 32.184 0 0 0-16.476 4.566c-15.265 9.11-20.271 28.942-11.161 44.21 10.044 16.831 35.389 46.069 73.759 73.075 30.86 21.72 80.585 49.001 142.216 55.621a258.591 258.591 0 0 0 27.512 1.468m0 20.001a277.75 277.75 0 0 1-29.644-1.581C358.19147 388.12 270.64347 302.238 247.02447 262.66c-14.787-24.778-6.69-56.847 18.085-71.633 8.393-5.008 17.616-7.393 26.726-7.393 17.787 0 35.132 9.092 44.91 25.479 10.072 16.874 71.244 79.269 152.452 87.991a178.842 178.842 0 0 0 19.067 1.021c62.455 0 124.835-32.859 185.705-97.934 10.287-10.99 24.211-16.548 38.165-16.548 12.789 0 25.604 4.665 35.678 14.089 21.071 19.711 22.175 52.771 2.468 73.843-98.223 104.994-192.9 130.999-262.595 130.999zM513.39847 195.251c-55.4 0-100.31-44.907-100.31-100.306s44.91-100.307 100.31-100.307c55.395 0 100.306 44.908 100.306 100.307S568.79347 195.251 513.39847 195.251zM513.60247 753.498c41.422 0 83.047-4.663 123.718-13.86 40.715-9.207 81.567-23.203 121.42-41.601 80.327-37.082 159.558-93.343 235.49-167.222 6.173-6.005 9.638-14.054 9.755-22.666 0.118-8.611-3.125-16.754-9.132-22.927-6.123-6.293-14.331-9.76-23.112-9.76-8.44 0-16.424 3.245-22.479 9.136-139.391 135.619-286.212 204.383-436.384 204.383-9.82 0-19.788-0.3-29.628-0.892-119.525-7.212-219.758-57.455-282.796-98.333-70.679-45.831-114.761-91.948-122.697-101.789l-0.092-0.115-0.09-0.116c-6.137-7.843-15.379-12.341-25.356-12.341-7.253 0-14.122 2.375-19.866 6.872-6.774 5.301-11.077 12.936-12.114 21.496-1.038 8.567 1.317 17.024 6.632 23.815 4.592 5.869 18.643 21.458 42.174 42.661 19.518 17.587 51.526 44.279 93.172 71.571 99.308 65.079 207.565 103.25 313.068 110.388a570.412 570.412 0 0 0 38.317 1.3m0 20c-13.192 0-26.403-0.448-39.667-1.345-108.92-7.369-220.504-46.655-322.681-113.614C72.00647 606.604 22.28647 554.175 11.11947 539.903c-17.783-22.72-13.815-55.605 8.907-73.387 9.568-7.49 20.923-11.122 32.191-11.122 15.49 0 30.817 6.865 41.107 20.017 7.055 8.749 50.226 53.609 118.01 97.563 61.02 39.57 157.938 88.2 273.119 95.15 9.484 0.57 18.963 0.855 28.424 0.855 144.784 0 286.767-66.718 422.438-198.717 10.155-9.881 23.299-14.801 36.426-14.801 13.611 0 27.205 5.286 37.447 15.813 20.121 20.68 19.67 53.755-1.012 73.875-155.874 151.659-322.079 228.349-494.574 228.349zM507.46047 569.417c124.91 0 247.921-56.949 365.62-169.265 6.23-5.945 9.772-13.961 9.974-22.571 0.202-8.609-2.962-16.782-8.913-23.017-6.142-6.438-14.425-9.984-23.325-9.984a32.108 32.108 0 0 0-22.257 8.921C723.27147 453.974 615.09747 504.918 507.04347 504.918c-5.217 0-10.504-0.122-15.718-0.361-69.944-3.224-138.851-27.45-204.808-72.003-50.943-34.413-83.092-70.104-89.016-76.906a32.27 32.27 0 0 0-24.337-11.064 32.217 32.217 0 0 0-21.159 7.932c-6.494 5.657-10.396 13.504-10.987 22.097-0.592 8.592 2.198 16.901 7.855 23.395 10.32 11.845 48.606 53.52 107.984 92.446 33.066 21.678 67.563 39.196 102.533 52.069 42.263 15.557 85.653 24.458 128.966 26.454 6.342 0.292 12.77 0.44 19.104 0.44m0 20c-6.668 0-13.343-0.154-20.025-0.462-197.071-9.085-329.162-149.714-353.641-177.811-18.954-21.756-16.681-54.758 5.074-73.709 9.901-8.624 22.122-12.852 34.296-12.852 14.578 0 29.085 6.07 39.416 17.926 11.998 13.775 121.8 134.792 279.667 142.069 4.925 0.226 9.868 0.339 14.797 0.339 102.744 0 206.177-48.998 307.708-145.886 10.121-9.656 23.104-14.451 36.064-14.451 13.779 0 27.533 5.419 37.797 16.179 19.924 20.873 19.148 53.944-1.726 73.862-121.627 116.066-249.18 174.796-379.427 174.796z"  horiz-adv-x="1024" />

    
    <glyph glyph-name="WIFIxinhao-wu" unicode="&#58997;" d="M507.68586 382.573c37.787 0 75.655-8.221 112.553-24.436 46.959-20.636 92.526-54.356 135.435-100.222 12.144-12.985 11.461-33.431-1.523-45.576a32.12 32.12 0 0 0-22.015-8.694c-9.03 0-17.398 3.628-23.559 10.21-64.72 69.189-132.114 104.271-200.312 104.271-7.039 0-14.171-0.382-21.203-1.136-87.968-9.449-154.472-75.817-167.492-97.63-5.875-9.848-16.244-15.727-27.734-15.727a32.184 32.184 0 0 0-16.476 4.566c-15.265 9.11-20.271 28.942-11.161 44.21 10.044 16.831 35.389 46.069 73.759 73.075 30.86 21.72 80.585 49.001 142.216 55.621a258.591 258.591 0 0 0 27.512 1.468m0 20.001a277.75 277.75 0 0 1-29.644-1.581C358.19186 388.12 270.64386 302.238 247.02486 262.66c-14.787-24.778-6.69-56.847 18.085-71.633 8.393-5.008 17.616-7.393 26.726-7.393 17.787 0 35.132 9.092 44.91 25.479 10.072 16.874 71.244 79.269 152.452 87.991a178.842 178.842 0 0 0 19.067 1.021c62.455 0 124.835-32.859 185.705-97.934 10.287-10.99 24.211-16.548 38.165-16.548 12.789 0 25.604 4.665 35.678 14.089 21.071 19.711 22.175 52.771 2.468 73.843-98.223 104.994-192.9 130.999-262.595 130.999zM513.39886 175.251c44.28 0 80.306-36.025 80.306-80.306s-36.025-80.307-80.306-80.307c-44.283 0-80.31 36.025-80.31 80.307 0 44.281 36.027 80.306 80.31 80.306m0 20c-55.4 0-100.31-44.907-100.31-100.306s44.91-100.307 100.31-100.307c55.395 0 100.306 44.908 100.306 100.307S568.79386 195.251 513.39886 195.251zM513.60286 753.498c41.422 0 83.047-4.663 123.718-13.86 40.715-9.207 81.567-23.203 121.42-41.601 80.327-37.082 159.558-93.343 235.49-167.222 6.173-6.005 9.638-14.054 9.755-22.666 0.118-8.611-3.125-16.754-9.132-22.927-6.123-6.293-14.331-9.76-23.112-9.76-8.44 0-16.424 3.245-22.479 9.136-139.391 135.619-286.212 204.383-436.384 204.383-9.82 0-19.788-0.3-29.628-0.892-119.525-7.212-219.758-57.455-282.796-98.333-70.679-45.831-114.761-91.948-122.697-101.789l-0.092-0.115-0.09-0.116c-6.137-7.843-15.379-12.341-25.356-12.341-7.253 0-14.122 2.375-19.866 6.872-6.774 5.301-11.077 12.936-12.114 21.496-1.038 8.567 1.317 17.024 6.632 23.815 4.592 5.869 18.643 21.458 42.174 42.661 19.518 17.587 51.526 44.279 93.172 71.571 99.308 65.079 207.565 103.25 313.068 110.388a570.412 570.412 0 0 0 38.317 1.3m0 20c-13.192 0-26.403-0.448-39.667-1.345-108.92-7.369-220.504-46.655-322.681-113.614C72.00686 606.604 22.28686 554.175 11.11986 539.903c-17.783-22.72-13.815-55.605 8.907-73.387 9.568-7.49 20.923-11.122 32.191-11.122 15.49 0 30.817 6.865 41.107 20.017 7.055 8.749 50.226 53.609 118.01 97.563 61.02 39.57 157.938 88.2 273.119 95.15 9.484 0.57 18.963 0.855 28.424 0.855 144.784 0 286.767-66.718 422.438-198.717 10.155-9.881 23.299-14.801 36.426-14.801 13.611 0 27.205 5.286 37.447 15.813 20.121 20.68 19.67 53.755-1.012 73.875-155.874 151.659-322.079 228.349-494.574 228.349zM507.46086 569.417c124.91 0 247.921-56.949 365.62-169.265 6.23-5.945 9.772-13.961 9.974-22.571 0.202-8.609-2.962-16.782-8.913-23.017-6.142-6.438-14.425-9.984-23.325-9.984a32.108 32.108 0 0 0-22.257 8.921C723.27186 453.974 615.09786 504.918 507.04386 504.918c-5.217 0-10.504-0.122-15.718-0.361-69.944-3.224-138.851-27.45-204.808-72.003-50.943-34.413-83.092-70.104-89.016-76.906a32.27 32.27 0 0 0-24.337-11.064 32.217 32.217 0 0 0-21.159 7.932c-6.494 5.657-10.396 13.504-10.987 22.097-0.592 8.592 2.198 16.901 7.855 23.395 10.32 11.845 48.606 53.52 107.984 92.446 33.066 21.678 67.563 39.196 102.533 52.069 42.263 15.557 85.653 24.458 128.966 26.454 6.342 0.292 12.77 0.44 19.104 0.44m0 20c-6.668 0-13.343-0.154-20.025-0.462-197.071-9.085-329.162-149.714-353.641-177.811-18.954-21.756-16.681-54.758 5.074-73.709 9.901-8.624 22.122-12.852 34.296-12.852 14.578 0 29.085 6.07 39.416 17.926 11.998 13.775 121.8 134.792 279.667 142.069 4.925 0.226 9.868 0.339 14.797 0.339 102.744 0 206.177-48.998 307.708-145.886 10.121-9.656 23.104-14.451 36.064-14.451 13.779 0 27.533 5.419 37.797 16.179 19.924 20.873 19.148 53.944-1.726 73.862-121.627 116.066-249.18 174.796-379.427 174.796z"  horiz-adv-x="1024" />

    
    <glyph glyph-name="csdn" unicode="&#58637;" d="M512 896c282.784 0 512-229.216 512-512s-229.216-512-512-512S0 101.216 0 384 229.216 896 512 896z m189.952-752l11.2 108.224c-31.904-9.536-100.928-16.128-147.712-16.128-134.464 0-205.728 47.296-195.328 146.304 11.584 110.688 113.152 145.696 232.64 145.696 54.784 0 122.432-8.8 151.296-18.336L768 623.296C724.544 633.76 678.272 640 599.584 640c-203.2 0-388.704-94.88-406.4-263.488C178.336 235.04 303.584 128 535.616 128c80.672 0 138.464 6.432 166.336 16z"  horiz-adv-x="1024" />

    
    <glyph glyph-name="wode" unicode="&#58893;" d="M510.1 348.9c112.2 0 203.4 91.2 203.4 203.4s-91.2 203.4-203.4 203.4-203.4-91.2-203.4-203.4 91.2-203.4 203.4-203.4z m0 356.2c84.2 0 152.8-68.5 152.8-152.8 0-84.2-68.5-152.8-152.8-152.8S357.3 468 357.3 552.3c0 84.3 68.5 152.8 152.8 152.8zM895.9 53.39999999999998C884.8 202.70000000000005 716.1 319.6 512 319.6c-204.1 0-372.8-117-383.9-266.2-0.8-10.5 2.9-21 10.1-28.8 7.3-7.8 17.6-12.3 28.2-12.3h691.1c10.7 0 21 4.5 28.2 12.3 7.3 7.8 11 18.2 10.2 28.8z m-715.8 9.5C198.4 179.5 340.7 269 512 269s313.6-89.5 331.9-206.1H180.1z"  horiz-adv-x="1024" />

    
    <glyph glyph-name="weibiaoti-" unicode="&#58883;" d="M334.181 703c28.475-0.36 62.279-18.75 77.312-34.542l-1.017-12.191c-20.549-8.363-40.176-29.713-45.777-51.813l3.052-3.047c15.588 0.399 71.665-3.325 82.399 1.016 14.826 5.995 22.146 40.475 42.725 35.557 14.889-3.825 41.501-36.533 52.898-47.749 0.271-8.553-1.052-12.609-4.069-17.27-33.544-8.912-82.413 2.505-119.021-4.064v-5.08c39.524-20.275 32.167-60.751-2.034-80.259v-5.079c14.822-21.709 23.216-34.496 8.138-64.004 18.866-23.018 87.154-30.04 126.141-23.366 9.246 7.029 14.118 18.382 22.38 26.414 19.216 0.388 63.679-27.03 69.174-38.606v-9.143c-3.362-6.947-12.625-11.554-18.311-16.255l-1.017-177.788c-3.469-9.584-15.862-9.199-19.328-19.303l2.035-1.016c20.844-4.576 64.393-15.833 83.415-5.08v222.49c-3.085 20.62 6.278 46.439-2.034 61.972l-151.573 1.016c-14.146 0-47.511-4.918-52.898-3.048-8.652 3.935-19.238 17.179-20.345 28.446 1.535 3.789 1.65 5.092 5.086 7.111h27.466v4.064c-25.382 9.343 4.737 35.645 12.208 46.733 21.836 32.41 45.108 64.003 62.053 102.609 10.619 24.194 14.739 55.587 29.501 76.195 19.526 1.033 67.215-22.182 78.329-34.541 0.086-5.388-0.534-8.149-2.034-11.176-18.664-6.055-40.354-19.658-41.708-41.653l3.052-2.032c9.655-3.869 24.824 0.861 33.569 1.016 10.112 0.179 27.689-3.832 39.674-2.032 18.639 2.799 28.11 30.406 43.742 39.622 15.379-4.359 71.795-49.037 65.105-66.036l-5.086-6.096h-141.4v-4.063c10.908-16.961 28.131-22.208 32.552-47.749 5.452-31.49-36.167-60.212-60.018-43.685-10.381 28.892-10.961 73.333-31.536 92.45l-6.103-1.016c-13.464-23.756-84.242-90.898-110.882-99.562l1.017-4.064 183.108-1.015c14.717 11.674 17.178 29.676 36.622 37.589 19.344-2.183 55.385-35.826 67.139-48.765-1.113-21.74-20.878-16.727-25.431-31.494l1.017-239.76c0.002-29.523 3.918-68.048-8.138-86.354-8.627-13.099-27.599-16.379-43.743-22.351-12.207-4.516-26.581-14.25-42.725-10.159-22.204 58.19-25.845 41.322-73.243 69.083-1.723 7.703 0.362 9.174 1.017 18.287l-2.034 1.016c-5.108-1.56-16.158-5.274-23.398-4.064-9.832 7.489-8.889 16.808-11.19 30.478a3633.05 3633.05 0 0 1-3.051 1.016c-6.772 3.001-79.818 3.36-89.52-2.032-2.94-32.629-4.968-37.835-34.587-46.732-6.022-1.809-12.48-7.904-18.311-4.064-17.359 7.605-7.243 47.556-7.121 71.115l-1.017 192.012c-8.344 7.713-18.679 9.841-25.432 19.302l-10.172 24.383-23.397 31.494c-7.164 9.394-19.338 13.689-24.415 25.398-1.754 6.287 0.606 11.5 3.052 16.255 23.832 3.304 44.125-17.319 65.105-14.223v6.095c-8.487 20.838-14.286 65.595-37.639 70.1-14.077 2.715-26.841-28.826-33.57-38.606-26.504-38.522-65.678-70.073-98.675-102.609-9.846-0.384-14.377 1.658-17.293 8.128-1.82 2.967-2.852 8.302-1.017 12.191l24.414 31.494 46.794 78.226 34.587 75.18c7.194 22.463 9.893 46.532 20.346 67.051l5.086 2.032z m339.767-59.94l3.052-1.016-1.017-2.032-3.052-1.016-2.034 1.016v1.016l1.017 1.016 2.034 1.016zM292.473 449.017c24.607-4.54 54.139-13.336 71.209-26.415 0.908-15.732-8.947-14.839-12.207-25.398l1.017-217.41c0.002-19.939 5.505-77.305-2.035-89.402-8.56-13.735-41.906-28.496-64.087-24.382l-6.104 6.095c1.092 78.554 4.07 165.73 4.069 249.92 0 36.532-6.363 96.383 0 122.928l8.138 4.064z m394.7-21.335h2.034c-1.416-1.953-0.103-0.608-2.034-2.032v2.032z m-213.626-65.02c-2.966-2.013-4.172-1.812-6.104-5.079-4.667-11.148-2.181-42.944 1.017-52.829 13.464-4.942 85.192-4.018 94.606 2.032 1.368 15.397 2.336 43.702-3.052 53.845l-86.467 2.031z m-2.035-89.402l-4.069-5.079c-4.431-14.677-2.909-47.973 5.086-53.845 27.459 6.856 70.568-7.908 90.537 4.064 2.223 12.634 1.987 45.565-4.069 54.86h-87.485z m202.436-116.832h2.035-2.035z"  horiz-adv-x="1024" />

    
    <glyph glyph-name="yuan1" unicode="&#58885;" d="M512 384m-64 0a64 64 0 1 1 128 0 64 64 0 1 1-128 0Z"  horiz-adv-x="1024" />

    
    <glyph glyph-name="csdn1" unicode="&#58937;" d="M512-128C229.2224-128 0 101.2224 0 384 0 666.7776 229.2224 896 512 896c282.7776 0 512-229.2224 512-512 0-282.7776-229.2224-512-512-512z m17.066667 413.525333c34.850133-4.352 68.778667-5.12 102.741333-2.0992 23.04 2.048 44.817067 8.362667 64.170667 21.9136 38.212267 26.794667 49.783467 85.1968 24.251733 123.050667-14.626133 21.7088-36.8128 30.344533-60.757333 35.498667-35.054933 7.543467-70.4512 5.751467-105.847467 3.413333-5.666133-0.3584-6.7584-3.072-7.236267-8.209067-3.072-32.682667-6.536533-65.314133-9.813333-97.962666-2.5088-24.814933-4.932267-49.629867-7.509333-75.605334z m53.4016 33.928534c1.962667 20.906667 3.6352 39.338667 5.4272 57.770666 1.553067 15.906133 3.413333 31.778133 4.727466 47.701334 0.3584 4.283733 1.553067 6.656 5.956267 6.382933 15.616-1.041067 31.709867-0.034133 46.728533-3.652267 36.488533-8.823467 48.725333-54.306133 23.3472-83.029333-15.8208-17.902933-36.7616-23.586133-59.255466-25.088-8.465067-0.546133-17.015467-0.085333-26.9312-0.085333zM512 461.704533c-2.184533 0.648533-3.5328 1.1776-4.932267 1.4336-37.717333 6.877867-75.690667 8.328533-113.646933 2.816-20.974933-3.037867-41.0112-9.489067-57.480533-23.330133-22.9888-19.319467-21.640533-46.848 4.4032-62.0032 13.056-7.594667 28.023467-12.509867 42.5984-17.288533 14.08-4.608 28.996267-6.826667 43.144533-11.264 12.5952-3.925333 14.011733-14.318933 3.584-22.306134-3.345067-2.56-7.441067-5.085867-11.537067-5.751466-11.195733-1.826133-22.698667-4.386133-33.826133-3.566934-24.098133 1.774933-48.042667 5.461333-72.5504 8.430934-1.365333-10.615467-2.935467-23.0912-4.5568-35.9424 4.181333-1.365333 7.68-2.730667 11.264-3.618134 33.9456-8.4992 68.386133-9.608533 102.912-5.12 20.087467 2.6112 39.4752 7.901867 56.695467 19.029334 28.603733 18.4832 36.693333 57.1904-4.676267 75.383466-14.506667 6.382933-30.190933 10.410667-45.482667 15.086934-11.4176 3.4816-23.313067 5.614933-34.525866 9.5232-9.7792 3.413333-11.144533 12.202667-3.037867 18.397866 4.6592 3.549867 10.717867 6.997333 16.384 7.3728a480.853333 480.853333 0 0 0 53.384533 0.853334c15.377067-0.699733 30.651733-3.549867 46.4896-5.5296L512 461.704533z m257.143467-2.048L750.933333 281.7024h54.152534c4.778667 45.636267 9.710933 90.7264 14.062933 135.8848 0.6144 6.365867 2.3552 8.840533 8.686933 9.0112 11.434667 0.273067 22.8864 1.979733 34.286934 1.570133 23.722667-0.853333 42.3936-9.728 38.4-43.264-2.901333-24.2688-5.597867-48.571733-8.2432-72.874666-1.092267-10.069333-1.826133-20.189867-2.730667-30.4128h55.330133c3.584 35.259733 7.9872 70.058667 10.496 104.994133 3.413333 47.4624-17.7664 73.3184-64.682666 80.213333-40.96 6.007467-81.339733 0.341333-121.5488-7.133866z m-483.498667-134.6048c-8.738133-1.297067-16.384-2.798933-24.098133-3.4816-25.6512-2.235733-51.319467-3.9424-76.305067 4.266667-13.909333 4.590933-24.6784 12.578133-29.7984 25.9584-7.901867 20.701867 0.887467 47.104 19.831467 60.3136 17.373867 12.117333 37.717333 15.9232 58.453333 15.9232 22.545067 0.017067 45.090133-2.423467 68.232533-3.84L307.2 463.701333c-15.069867 1.723733-29.4912 3.925333-43.997867 4.9152-41.0112 2.798933-80.64-2.6112-117.469866-20.462933-30.020267-14.557867-52.053333-36.010667-58.6752-68.130133-7.850667-38.144 11.537067-69.495467 51.7632-85.845334 19.1488-7.765333 39.287467-12.509867 60.0064-12.5952 24.746667-0.1024 49.493333 1.570133 74.205866 2.952534 3.106133 0.170667 8.311467 2.901333 8.669867 5.034666 1.979733 11.554133 2.730667 23.278933 3.9424 35.464534z"  horiz-adv-x="1024" />

    
    <glyph glyph-name="tag4" unicode="&#58952;" d="M0-128l329.966933 512L0 896h2389.333333v-1024"  horiz-adv-x="2389" />

    
    <glyph glyph-name="shouzhixuanzhong" unicode="&#58625;" d="M94.273016 189.85537899999997L94.273016 469.784832c0 45.87231 33.230335 66.46067 62.487478 84.881835 1.805996 1.083598 3.61199299 2.528395 5.417989 3.973192 2.528395 1.805996 4.695591 3.250794 6.501588 4.695591L363.005291 694.089594c41.17672 27.812346 97.52381 16.976367 125.336155-24.561552 10.11358-14.809171 15.17037-32.14673701 15.170371-50.206702 0-20.949559-7.223986-41.17672-20.227161-57.069488L831.119577 562.251852c49.845503 0 90.299824-38.648325 90.299823-85.965432 0-47.317108-40.454321-85.965432-90.299823-85.96543201l-123.891358 0c6.862787-11.197178 10.835979-23.839153 10.835979-37.20352799 0-26.367549-14.447972-49.845503-37.564727-64.29347401 11.558377-13.725573 18.421164-30.340741 18.421164-47.67830699 0-31.424339-21.671958-59.597884-53.096296-71.87865999 4.695591-9.752381 7.223986-20.22716 7.223986-31.06313901 0-43.705115-40.454321-79.102646-90.299824-79.102645l-272.705467 0c-98.968607-0.361199-195.770018 74.768254-195.770018 130.754144m373.84127 429.827161c0 10.835979-3.250794 21.310758-9.029983 29.979541-16.615168 24.922751-50.206702 31.42433901-75.129453 14.809171l-194.32522-130.75414399c-1.805996-1.083598-3.61199299-2.528395-5.779189-3.97319301-2.167196-1.444797-4.334392-2.889594-6.140388-4.334391l-0.722399-0.361199c-31.785538-19.865961-45.87231-31.063139-45.87231-54.541094l0-279.929453c0-30.70194 75.490653-94.995414 159.288889-94.995415l272.705467 0c29.257143 0 54.179894 19.865961 54.179894 42.98271601 0 10.47478-5.05679 20.58836-14.086772 28.89594399l-32.146737 28.534744 42.621516 3.250794c27.451146 2.167196 49.123104 20.949559 49.123104 42.982716 0 14.44797201-9.752381 28.534744-25.645149 36.48112899l-46.594709 23.11675401 50.9291 10.835979c23.477954 5.05679 40.81552 22.394356 40.81552 41.537919 0 15.892769-11.919577 31.063139-30.34074 38.648325l-86.687831 34.675132L831.119577 427.524515c29.979541 0 54.179894 22.394356 54.179894 49.845503 0 27.451146-24.200353 49.845503-54.179894 49.845502l-458.000706 0L444.275132 574.5326279999999c14.809171 10.11358 23.839153 26.728748 23.839154 45.149912M690.251852 426.440917l0-36.119929-126.058554 0 0 36.119929zM668.579894 310.13474399999996l0-36.119929-126.058554 0 0 36.119929zM633.904762 197.440564l0-36.119929-126.058554 0 0 36.119929z"  horiz-adv-x="1024" />

    
    <glyph glyph-name="wode1" unicode="&#59235;" d="M512 432c88 0 160 72 160 160s-72 160-160 160-160-72-160-160 72-160 160-160z m-139.2-16C321.6 457.6 288 520 288 592c0 123.2 100.8 224 224 224s224-100.8 224-224c0-70.4-33.6-134.4-84.8-176C811.2 369.6 928 222.4 928 48c0-52.8-43.2-96-96-96H192c-52.8 0-96 43.2-96 96 0 174.4 116.8 321.6 276.8 368zM832 16c17.6 0 32 14.4 32 32 0 176-144 320-320 320h-64c-176 0-320-144-320-320 0-17.6 14.4-32 32-32h640z"  horiz-adv-x="1024" />

    
    <glyph glyph-name="triangle-t-copy" unicode="&#58916;" d="M859.6091-36.81179999999995c0-5.40260001-2.8621-10.6404-7.9227-13.44-5.0616-2.80060001-11.0182-2.4453-15.5955 0.42600001L161.50729999 373.0698c-4.3295 2.7136-7.2008 7.53050001-7.2008 13.014 0 5.4845 2.8733 10.3014 7.19970002 13.014L836.0909 821.9945c4.5773 2.87029999 10.5339 3.2246 15.5955 0.426 5.0606-2.8006 7.92270001-8.0384 7.9227-13.44L859.6091-36.81177600000001 859.6091-36.81179999999995z"  horiz-adv-x="1024" />

    
    <glyph glyph-name="tag5" unicode="&#58935;" d="M194.889274 896v-1024l317.082033 224.864391 317.139419-224.864391V896z"  horiz-adv-x="1024" />

    
    <glyph glyph-name="jiazi" unicode="&#58889;" d="M778.9 60.2h-519c-6.6 0-12 5.4-12 12l-0.5 376.1c0 3.2 1.3 6.2 3.5 8.5 2.3 2.3 5.3 3.5 8.5 3.5h520c3.2 0 6.2-1.3 8.5-3.5 2.3-2.3 3.5-5.3 3.5-8.5l-0.5-376.1c0-6.6-5.4-12-12-12z m-507.1 24h495.1l0.4 352.1H271.4l0.4-352.1zM471.7 531.2c-1.9 0-3.8 0.4-5.6 1.4-37.8 19.9-61.3 58.8-61.3 101.4 0 63.2 51.4 114.5 114.5 114.5 63.2 0 114.5-51.4 114.5-114.5 0-42.7-23.5-81.6-61.3-101.4-5.9-3.1-13.1-0.8-16.2 5-3.1 5.9-0.8 13.1 5 16.2 29.9 15.7 48.5 46.5 48.5 80.2 0 49.9-40.6 90.5-90.5 90.5s-90.5-40.6-90.5-90.5c0-33.7 18.6-64.5 48.5-80.2 5.9-3.1 8.1-10.3 5-16.2-2.1-4-6.3-6.4-10.6-6.4zM355.7 63.5c-6.6 0-12 5.4-12 12v78.3H271c-6.6 0-12 5.4-12 12s5.4 12 12 12h84.7c6.6 0 12-5.4 12-12v-90.3c0-6.7-5.4-12-12-12zM570.5 59.8c-6.6 0-12 5.4-12 12v82h-77.9v-82c0-6.6-5.4-12-12-12s-12 5.4-12 12v94c0 6.6 5.4 12 12 12h101.9c6.6 0 12-5.4 12-12v-94c0-6.6-5.4-12-12-12zM686.1 64.7c-6.6 0-12 5.4-12 12v89.1c0 6.6 5.4 12 12 12h83.3c6.6 0 12-5.4 12-12s-5.4-12-12-12h-71.3v-77.1c0-6.6-5.4-12-12-12zM412.6 137.3h-55.1c-6.6 0-12 5.4-12 12s5.4 12 12 12h44.8L459.8 545c1 6.6 7.1 11.1 13.6 10.1 6.6-1 11.1-7.1 10.1-13.6l-59.1-394c-0.8-5.9-5.8-10.2-11.8-10.2zM686.1 137.3h-60c-5.9 0-11 4.3-11.9 10.2l-59.1 394c-1 6.6 3.5 12.7 10.1 13.6 6.5 1 12.7-3.5 13.6-10.1l57.5-383.7h49.6c6.6 0 12-5.4 12-12s-5.2-12-11.8-12z"  horiz-adv-x="1024" />

    
    <glyph glyph-name="sanjiaoxing" unicode="&#59091;" d="M668.96-44.916L178.615 301.306c-51.667 37.099-51.667 129.847 0 166.946L668.96 815.513c51.667 37.099 137.063 10.497 137.063-63.701v-734.067c0-74.198-85.396-99.76-137.063-62.66z"  horiz-adv-x="1024" />

    
    <glyph glyph-name="tag6" unicode="&#58957;" d="M979.478261 673.391304H322.782609c-11.130435 0-21.147826-4.452174-28.939131-11.130434l-278.260869-244.869566c-10.017391-8.904348-15.582609-21.147826-15.582609-33.391304 0-13.356522 5.565217-24.486957 15.582609-33.391304l278.260869-244.869566c7.791304-6.678261 18.921739-11.130435 28.939131-11.130434h656.695652c24.486957 0 44.521739 20.034783 44.521739 44.521739V628.869565c0 24.486957-20.034783 44.521739-44.521739 44.521739z m-44.521739-489.73913H339.478261L112.417391 384l228.173913 200.347826H934.956522v-400.695652zM302.747826 435.2c13.356522 13.356522 32.278261 21.147826 51.2 21.147826 18.921739 0 37.843478-7.791304 51.2-21.147826 13.356522-13.356522 21.147826-32.278261 21.147826-51.2s-7.791304-37.843478-21.147826-51.2c-13.356522-13.356522-32.278261-21.147826-51.2-21.147826-18.921739 0-37.843478 7.791304-51.2 21.147826-13.356522 13.356522-21.147826 32.278261-21.147826 51.2s7.791304 37.843478 21.147826 51.2z"  horiz-adv-x="1024" />

    
    <glyph glyph-name="rili2" unicode="&#59251;" d="M883.5 612.6v-571.5c0-15.5-5.6-28.8-17-40.2-11.3-11.3-24.7-17-40.2-17H197.7c-15.5 0-28.8 5.6-40.2 17-11.4 11.3-17 24.7-17 40.2V612.6c0 15.5 5.6 28.8 17 40.2 11.3 11.3 24.7 17 40.2 17h57.2v42.8c0 19.6 6.9 36.4 20.9 50.4s30.8 20.9 50.4 20.9h28.5c19.6 0 36.4-7 50.4-20.9 14-14 20.9-30.8 20.9-50.4v-42.8h171.5v42.8c0 19.6 6.9 36.4 20.9 50.4s31 21 50.6 21h28.5c19.6 0 36.4-7 50.4-20.9 14-14 20.9-30.8 20.9-50.4v-42.8H826c15.5 0 28.8-5.6 40.2-17 11.6-11.4 17.3-24.8 17.3-40.3zM197.7 369.7h128.5V498.4H197.7v-128.7z m0-171.3h128.5V341.2H197.7v-142.8z m0-157.2h128.5V169.7H197.7v-128.5z m171.4 542.9V712.6c0 3.8-1.4 7.2-4.2 10s-6.2 4.2-10 4.2h-28.5c-3.8 0-7.2-1.4-10-4.2-2.8-2.8-4.2-6.2-4.2-10v-128.5c0-3.8 1.4-7.2 4.2-10 2.8-2.8 6.2-4.2 10-4.2h28.5c3.8 0 7.2 1.4 10 4.2 2.8 2.8 4.2 6.1 4.2 10z m-14.3-214.4h142.9V498.4H354.8v-128.7z m0-171.3h142.9V341.2H354.8v-142.8z m0-157.2h142.9V169.7H354.8v-128.5z m171.5 328.5h142.9V498.4H526.3v-128.7z m0-171.3h142.9V341.2H526.3v-142.8z m0-157.2h142.9V169.7H526.3v-128.5zM712 584.1V712.6c0 3.8-1.4 7.2-4.2 10s-6.2 4.2-10 4.2h-28.5c-3.8 0-7.2-1.4-10-4.2s-4.2-6.2-4.2-10v-128.5c0-3.8 1.4-7.2 4.2-10s6.2-4.2 10-4.2h28.5c3.8 0 7.2 1.4 10 4.2 2.8 2.8 4.2 6.1 4.2 10z m-14.3-214.4h128.5V498.4H697.7v-128.7z m0-171.3h128.5V341.2H697.7v-142.8z m0-157.2h128.5V169.7H697.7v-128.5z"  horiz-adv-x="1024" />

    
    <glyph glyph-name="rili3" unicode="&#58890;" d="M890.77839 4.092613h-757.55678c-44.030871 0-79.782433 35.751562-79.782433 79.782433V607.353179c0 44.030871 35.751562 79.782433 79.782433 79.782433h118.16832c3.010658 0 5.644983-2.634326 5.644984-5.644984s-2.634326-5.644983-5.644984-5.644983h-118.16832c-37.633223 0-68.492466-30.859243-68.492466-68.492466V83.875046c0-37.633223 30.859243-68.492466 68.492466-68.492466H890.77839c37.633223 0 68.492466 30.859243 68.492466 68.492466V607.729511c0 37.633223-30.859243 68.492466-68.492466 68.492466H770.352076c-3.010658 0-5.644983 2.634326-5.644983 5.644984s2.634326 5.644983 5.644983 5.644983h120.426314c44.030871 0 79.782433-35.751562 79.782433-79.782433V83.875046c0-44.030871-35.751562-79.782433-79.782433-79.782433zM702.612275 676.221977h-158.059537c-3.010658 0-5.644983 2.634326-5.644983 5.644984s2.634326 5.644983 5.644983 5.644983h158.059537c3.010658 0 5.644983-2.634326 5.644983-5.644983s-2.634326-5.644983-5.644983-5.644984zM477.189269 676.221977h-158.43587c-3.010658 0-5.644983 2.634326-5.644983 5.644984s2.634326 5.644983 5.644983 5.644983h158.43587c3.010658 0 5.644983-2.634326 5.644983-5.644983s-2.634326-5.644983-5.644983-5.644984zM495.629548 464.723264c22.203602-18.063947 33.493569-43.278207 33.493569-74.890114 0-40.267549-20.32194-66.987137-61.342154-80.535098 22.203602-6.77398 39.138552-16.93495 50.052187-29.730246 12.418964-13.924293 18.440279-31.611907 18.440279-53.815509 0-33.869901-12.042631-61.718486-35.751562-83.545755-25.214259-22.203602-57.578831-33.493569-97.470048-33.493569-38.009555 0-68.868798 9.784638-92.201396 29.353914-25.966924 21.827269-40.267549 53.439177-43.278207 94.835722h61.342154c1.128997-24.085263 8.655641-42.525542 22.579934-55.320838 13.171628-12.042631 30.106578-18.063947 51.181183-18.063947 22.956266 0 41.396545 6.397648 55.320838 19.569276 12.042631 12.042631 18.063947 26.719588 18.063947 43.654539 0 21.074605-6.397648 36.504226-19.192944 46.288864-12.042631 9.784638-30.106578 15.053289-54.191841 15.05329h-25.966924v45.5362h25.966924c21.827269 0 38.009555 4.515987 49.675854 13.924292 10.913635 9.408306 16.558618 22.956266 16.558619 41.396546 0 17.687615-4.892319 31.611907-15.05329 40.643881-10.537302 9.408306-26.719588 13.924293-47.794193 13.924292-21.827269 0-38.385888-5.268651-50.052187-15.805954-12.418964-10.537302-19.569276-27.095921-21.827269-49.675854H274.722528c3.010658 37.633223 16.93495 66.234473 41.396546 86.556413 22.579934 20.32194 52.31018 30.482911 89.190739 30.482911 38.009555 0.376332 68.116134-8.655641 90.319735-26.343256zM751.911797 484.29254v-368.052922h-60.213157V411.284087c-22.203602-20.32194-50.428519-35.37523-83.922087-44.783536V426.337376c16.182286 4.139655 33.869901 11.289967 53.062844 21.827269 18.063947 10.913635 33.493569 22.956266 45.912532 36.127895h45.159868zM285.259831 594.557883c-21.827269 0-39.514884 17.687615-39.514884 39.514884v95.588387c0 21.827269 17.687615 39.514884 39.514884 39.514884s39.514884-17.687615 39.514884-39.514884v-95.964719c-0.376332-21.827269-18.063947-39.138552-39.514884-39.138552z m0 163.328188c-15.429621 0-28.224917-12.795296-28.224917-28.224917v-95.588387c0-15.429621 12.795296-28.224917 28.224917-28.224917s27.848585 12.418964 28.224917 27.848585v95.964719c0 15.429621-12.795296 28.224917-28.224917 28.224917zM510.682837 594.557883c-21.827269 0-39.514884 17.687615-39.514884 39.514884v95.588387c0 21.827269 17.687615 39.514884 39.514884 39.514884s39.514884-17.687615 39.514884-39.514884v-95.964719c0-21.450937-17.687615-39.138552-39.514884-39.138552z m0 163.328188c-15.429621 0-28.224917-12.795296-28.224917-28.224917v-95.588387c0-15.429621 12.795296-28.224917 28.224917-28.224917s28.224917 12.418964 28.224918 27.848585v95.964719c0 15.429621-12.795296 28.224917-28.224918 28.224917zM736.482176 594.557883c-21.827269 0-39.514884 17.687615-39.514885 39.514884v95.588387c0 21.827269 17.687615 39.514884 39.514885 39.514884s39.514884-17.687615 39.514884-39.514884v-95.964719c0-21.450937-17.687615-39.138552-39.514884-39.138552z m0 163.328188c-15.429621 0-28.224917-12.795296-28.224918-28.224917v-95.588387c0-15.429621 12.795296-28.224917 28.224918-28.224917s28.224917 12.418964 28.224917 27.848585v95.964719c0 15.429621-12.795296 28.224917-28.224917 28.224917z"  horiz-adv-x="1024" />

    
    <glyph glyph-name="jiazi1" unicode="&#58919;" d="M604.16 295.253333H417.564444V546.702222c0 26.168889 21.617778 47.786667 47.786667 47.786667H557.511111c26.168889 0 47.786667-21.617778 47.786667-47.786667v-251.448889z m-169.528889 17.066667h152.462222V546.702222c0 17.066667-13.653333 30.72-30.72 30.72h-92.16c-17.066667 0-30.72-13.653333-30.72-30.72v-234.382222zM827.164444 172.373333H193.422222c-18.204444 0-32.995556 14.791111-32.995555 32.995556v20.48c0 13.653333 9.102222 25.031111 21.617777 28.444444l242.346667 58.026667h172.942222l232.106667-55.751111c18.204444-4.551111 31.857778-21.617778 31.857778-39.822222v-10.24c0-19.342222-14.791111-34.133333-34.133334-34.133334zM426.666667 295.253333l-241.208889-58.026666c-5.688889-1.137778-9.102222-5.688889-9.102222-11.377778v-20.48c0-9.102222 6.826667-15.928889 15.928888-15.928889h634.88c9.102222 0 17.066667 7.964444 17.066667 17.066667v10.24c0 11.377778-7.964444 21.617778-19.342222 23.893333l-230.968889 55.751111H426.666667zM608.711111 438.613333h-13.653333v17.066667h13.653333c3.413333 0 6.826667 2.275556 6.826667 5.688889 0 2.275556-3.413333 5.688889-6.826667 5.688889h-13.653333v17.066666h13.653333c12.515556 0 22.755556-10.24 22.755556-21.617777s-10.24-23.893333-22.755556-23.893334zM425.528889 438.613333h-10.24c-12.515556 0-22.755556 10.24-22.755556 21.617778s10.24 21.617778 22.755556 21.617778h10.24v-17.066667h-10.24c-3.413333 0-6.826667-2.275556-6.826667-5.688889 0-2.275556 3.413333-5.688889 6.826667-5.688889h10.24v-14.791111z"  horiz-adv-x="1024" />

    
    <glyph glyph-name="jianshu" unicode="&#58630;" d="M0 384v-512h1024V896H0v-512z m356.864 331.776c-1.024-6.656-4.096-15.872-6.144-20.48-3.584-8.704 2.048-9.216 78.848-9.216H512v-51.2h-43.52c-24.064 0-43.52-0.512-43.52-1.024 0-1.024 4.608-16.384 10.24-34.816 5.632-18.432 10.24-33.792 10.24-34.304 0-1.024-18.432-1.536-40.448-1.536h-40.448l-3.584 16.896c-9.216 45.056-13.824 54.784-27.136 54.784-7.68 0-21.504-8.192-35.328-20.992-22.016-19.968-71.168-46.592-99.84-53.76-14.336-3.072-14.336-3.072-14.336 22.528 0 23.552 1.024 26.112 19.968 38.4 25.088 16.384 41.984 38.912 59.392 76.8l13.312 29.184h41.472c39.936 0 40.96-0.512 38.4-11.264z m306.688-6.656l-3.584-17.92h179.712v-56.32h-96.768l10.24-29.184c14.848-43.008 15.36-42.496-28.16-42.496h-37.888l-3.584 16.896c-2.048 8.704-6.144 25.088-8.704 35.84-5.12 17.92-7.168 18.944-25.6 18.944-16.384 0-23.552-3.584-41.472-20.992-19.456-18.944-76.288-50.176-104.448-58.368-10.752-3.072-11.776-1.536-11.776 18.944 0 20.992 2.048 24.576 27.648 46.592 25.6 22.016 49.152 59.392 61.44 97.28 2.048 7.168 9.216 8.704 44.544 8.704h41.472l-3.072-17.92z m-317.44-162.304c4.608-8.704 13.824-32.256 20.48-51.2 13.824-41.472 14.336-40.96-36.352-38.912l-34.816 1.536-11.264 35.84c-6.144 19.968-14.848 43.52-19.968 52.736L255.488 563.2h40.96c40.96 0 41.472 0 49.664-16.384z m462.848-225.792c0-200.192-0.512-217.6-9.216-233.984-15.872-28.672-40.448-37.888-103.424-38.4h-53.76l-1.536 29.696-1.536 29.184h33.792c29.184 0 35.328 1.536 46.08 12.8l12.8 12.288V476.16H384V537.6h424.96v-216.576zM291.84 243.2v-202.24h-76.8V445.44h76.8V243.2z m363.52 57.344c0-182.784 4.608-177.664-167.424-177.664H373.76V424.96h281.6v-124.416zM450.56 335.36v-33.28h128V368.64h-128v-33.28zM450.56 215.04v-35.84h55.808c65.024 0 69.12 2.56 69.632 43.008v26.112l-62.464 1.536-62.976 1.536v-36.352z"  horiz-adv-x="1024" />

    
    <glyph glyph-name="home-line" unicode="&#58928;" d="M869.376 389.0176L526.4384 731.9552c-7.9872 7.9872-20.992 7.9872-28.9792 0L154.624 389.0176c-12.9024-12.9024-3.7888-34.9184 14.4384-34.9184h57.6512v-303.5136c0-11.264 9.216-20.48 20.48-20.48H450.56V235.72479999999996c0 33.8944 27.5456 61.44 61.44 61.44s61.44-27.5456 61.44-61.44v-205.6192h206.4384c11.264 0 20.48 9.216 20.48 20.48V354.0992h54.4768c18.2272 0 27.4432 22.016 14.5408 34.9184z m-87.3472 6.0416c-0.7168 0.1024-1.4336 0.1024-2.1504 0.1024h-20.48v-313.856c0-5.632-4.608-10.24-10.24-10.24H614.4V235.72479999999996c0 56.4224-45.9776 102.4-102.4 102.4s-102.4-45.9776-102.4-102.4v-164.6592H278.016c-5.632 0-10.24 4.608-10.24 10.24V343.9616v51.2h-20.48c-0.7168 0-1.4336 0-2.1504-0.1024h-26.5216L512 688.4352l293.376-293.376h-23.3472z"  horiz-adv-x="1024" />

    
    <glyph glyph-name="Asset" unicode="&#58896;" d="M575.207253 384a64 64 0 1 1-63.146666-64 64 64 0 0 1 63.146666 64z m-256 0A192 192 0 1 0 512.060587 192 192 192 0 0 0 319.207253 384z m-188.586666 13.653333a36.693333 36.693333 0 0 1 0-29.866666l235.52-341.333334a80.213333 80.213333 0 0 1 48.64-25.6H1280.060587v768H414.780587a80.213333 80.213333 0 0 1-48.64-25.6z m131.413333-446.293333L27.367253 298.666667a159.573333 159.573333 0 0 0 0 179.2l234.666667 341.333333A201.386667 201.386667 0 0 0 414.780587 896H1280.060587a128 128 0 0 0 127.146666-128v-768A128 128 0 0 0 1280.060587-128H414.780587a201.386667 201.386667 0 0 0-152.746667 79.36z"  horiz-adv-x="1407" />

    
    <glyph glyph-name="rili4" unicode="&#58901;" d="M1023.5 547.4V738c0 51.8-42.2 94-94 94H798V866c0 16.5-13.5 30-30 30s-30-13.5-30-30v-34H286V866c0 16.5-13.5 30-30 30s-30-13.5-30-30v-34H94.5c-51.8 0-94-42.2-94-94v-190.6c-0.3-1.8-0.5-3.6-0.5-5.4 0-1.8 0.2-3.6 0.5-5.4V-34c0-51.8 42.2-94 94-94h835c51.8 0 94 42.2 94 94V536.6c0.3 1.8 0.5 3.6 0.5 5.4 0 1.8-0.2 3.6-0.5 5.4z m-60-581.4c0-18.7-15.3-34-34-34h-835c-18.7 0-34 15.3-34 34V512h903v-546z m0 606h-903V738c0 18.7 15.3 34 34 34H226v-38c0-16.5 13.5-30 30-30s30 13.5 30 30v38h452v-38c0-16.5 13.5-30 30-30s30 13.5 30 30v38h131.5c18.7 0 34-15.3 34-34v-166zM405.3 416m-30 0a30 30 0 1 1 60 0 30 30 0 1 1-60 0ZM618.7 416m-30 0a30 30 0 1 1 60 0 30 30 0 1 1-60 0ZM832 416m-30 0a30 30 0 1 1 60 0 30 30 0 1 1-60 0ZM192 288m-30 0a30 30 0 1 1 60 0 30 30 0 1 1-60 0ZM405.3 288m-30 0a30 30 0 1 1 60 0 30 30 0 1 1-60 0ZM618.7 288m-30 0a30 30 0 1 1 60 0 30 30 0 1 1-60 0ZM832 288m-30 0a30 30 0 1 1 60 0 30 30 0 1 1-60 0ZM192 160m-30 0a30 30 0 1 1 60 0 30 30 0 1 1-60 0ZM405.3 160m-30 0a30 30 0 1 1 60 0 30 30 0 1 1-60 0ZM618.7 160m-30 0a30 30 0 1 1 60 0 30 30 0 1 1-60 0ZM832 160m-30 0a30 30 0 1 1 60 0 30 30 0 1 1-60 0ZM192 32m-30 0a30 30 0 1 1 60 0 30 30 0 1 1-60 0ZM405.3 32m-30 0a30 30 0 1 1 60 0 30 30 0 1 1-60 0ZM618.7 32m-30 0a30 30 0 1 1 60 0 30 30 0 1 1-60 0Z"  horiz-adv-x="1024" />

    
    <glyph glyph-name="dianliang" unicode="&#58929;" d="M779.073919 762.413046H667.784787V829.206523C667.784787 866.002929 637.887706 896 600.991309 896H423.008691c-36.796407 0-66.793477-29.997071-66.793478-66.793477v-66.793477H244.926081c-36.796407 0-66.793477-29.997071-66.793477-66.793478v-756.826091c0-36.796407 29.997071-66.793477 66.793477-66.793477h534.247828c36.796407 0 66.793477 29.997071 66.793477 66.793477v756.926082c-0.09999 36.796407-29.997071 66.693487-66.893467 66.693487zM400.710868 829.206523c0 12.298799 9.999024 22.297822 22.297823 22.297822h177.982618c12.298799 0 22.297822-9.999024 22.297823-22.297822v-64.593692H400.710868V829.206523z m400.660873-890.313056c0-12.298799-9.999024-22.297822-22.297822-22.297822H244.926081c-12.298799 0-22.297822 9.999024-22.297822 22.297822V695.719559c0 12.298799 9.999024 22.297822 22.297822 22.297822h534.247828c12.298799 0 22.297822-9.999024 22.297822-22.297822v-756.826092zM645.586954 50.182599H378.413046c-12.198809 0-22.297822-9.999024-22.297823-22.297822s9.999024-22.297822 22.297823-22.297823h267.073918c12.198809 0 22.297822 9.999024 22.297823 22.297823s-9.999024 22.297822-22.197833 22.297822z"  horiz-adv-x="1024" />

    
    <glyph glyph-name="dianliang1" unicode="&#58930;" d="M779.073919 762.413046H667.784787V829.206523C667.784787 866.002929 637.887706 896 600.991309 896H423.008691c-36.796407 0-66.793477-29.997071-66.793478-66.793477v-66.793477H244.926081c-36.796407 0-66.793477-29.997071-66.793477-66.793478v-756.826091c0-36.796407 29.997071-66.793477 66.793477-66.793477h534.247828c36.796407 0 66.793477 29.997071 66.793477 66.793477v756.926082c-0.09999 36.796407-29.997071 66.693487-66.893467 66.693487zM400.710868 829.206523c0 12.298799 9.999024 22.297822 22.297823 22.297822h177.982618c12.298799 0 22.297822-9.999024 22.297823-22.297822v-64.593692H400.710868V829.206523z m400.660873-890.313056c0-12.298799-9.999024-22.297822-22.297822-22.297822H244.926081c-12.298799 0-22.297822 9.999024-22.297822 22.297822V695.719559c0 12.298799 9.999024 22.297822 22.297822 22.297822h534.247828c12.298799 0 22.297822-9.999024 22.297822-22.297822v-756.826092zM645.586954 228.265208H378.413046c-12.198809 0-22.297822-9.999024-22.297823-22.297822s9.999024-22.297822 22.297823-22.297822h267.073918c12.198809 0 22.297822 9.999024 22.297823 22.297822s-9.999024 22.297822-22.197833 22.297822zM645.586954 50.182599H378.413046c-12.198809 0-22.297822-9.999024-22.297823-22.297822s9.999024-22.297822 22.297823-22.297823h267.073918c12.198809 0 22.297822 9.999024 22.297823 22.297823s-9.999024 22.297822-22.197833 22.297822z"  horiz-adv-x="1024" />

    
    <glyph glyph-name="dianliang2" unicode="&#58931;" d="M779.073919 762.413046H667.784787V829.206523C667.784787 866.002929 637.887706 896 600.991309 896H423.008691c-36.796407 0-66.793477-29.997071-66.793478-66.793477v-66.793477H244.926081c-36.796407 0-66.793477-29.997071-66.793477-66.793478v-756.826091c0-36.796407 29.997071-66.793477 66.793477-66.793477h534.247828c36.796407 0 66.793477 29.997071 66.793477 66.793477v756.926082c-0.09999 36.796407-29.997071 66.693487-66.893467 66.693487zM400.710868 829.206523c0 12.298799 9.999024 22.297822 22.297823 22.297822h177.982618c12.298799 0 22.297822-9.999024 22.297823-22.297822v-64.593692H400.710868V829.206523z m400.660873-890.313056c0-12.298799-9.999024-22.297822-22.297822-22.297822H244.926081c-12.298799 0-22.297822 9.999024-22.297822 22.297822V695.719559c0 12.298799 9.999024 22.297822 22.297822 22.297822h534.247828c12.298799 0 22.297822-9.999024 22.297822-22.297822v-756.826092zM645.586954 406.347818H378.413046c-12.198809 0-22.297822-9.999024-22.297823-22.297823 0-12.198809 9.999024-22.297822 22.297823-22.297822h267.073918c12.198809 0 22.297822 9.999024 22.297823 22.297822 0 12.198809-9.999024 22.297822-22.197833 22.297823zM645.586954 228.265208H378.413046c-12.198809 0-22.297822-9.999024-22.297823-22.297822s9.999024-22.297822 22.297823-22.297822h267.073918c12.198809 0 22.297822 9.999024 22.297823 22.297822s-9.999024 22.297822-22.197833 22.297822zM645.586954 50.182599H378.413046c-12.198809 0-22.297822-9.999024-22.297823-22.297822s9.999024-22.297822 22.297823-22.297823h267.073918c12.198809 0 22.297822 9.999024 22.297823 22.297823s-9.999024 22.297822-22.197833 22.297822zM645.586954 584.330436H378.413046c-12.198809 0-22.297822-9.999024-22.297823-22.297822 0-12.198809 9.999024-22.297822 22.297823-22.297822h267.073918c12.198809 0 22.297822 9.999024 22.297823 22.297822s-9.999024 22.297822-22.197833 22.297822z"  horiz-adv-x="1024" />

    
    <glyph glyph-name="dianliang3" unicode="&#58932;" d="M779.073919 762.413046H667.784787V829.206523C667.784787 866.002929 637.887706 896 600.991309 896H423.008691c-36.796407 0-66.793477-29.997071-66.793478-66.793477v-66.793477H244.926081c-36.796407 0-66.793477-29.997071-66.793477-66.793478v-756.826091c0-36.796407 29.997071-66.793477 66.793477-66.793477h534.247828c36.796407 0 66.793477 29.997071 66.793477 66.793477v756.926082c-0.09999 36.796407-29.997071 66.693487-66.893467 66.693487zM400.710868 829.206523c0 12.298799 9.999024 22.297822 22.297823 22.297822h177.982618c12.298799 0 22.297822-9.999024 22.297823-22.297822v-64.593692H400.710868V829.206523z m400.660873-890.313056c0-12.298799-9.999024-22.297822-22.297822-22.297822H244.926081c-12.298799 0-22.297822 9.999024-22.297822 22.297822V695.719559c0 12.298799 9.999024 22.297822 22.297822 22.297822h534.247828c12.298799 0 22.297822-9.999024 22.297822-22.297822v-756.826092zM645.586954 406.347818H378.413046c-12.198809 0-22.297822-9.999024-22.297823-22.297823 0-12.198809 9.999024-22.297822 22.297823-22.297822h267.073918c12.198809 0 22.297822 9.999024 22.297823 22.297822 0 12.198809-9.999024 22.297822-22.197833 22.297823zM645.586954 228.265208H378.413046c-12.198809 0-22.297822-9.999024-22.297823-22.297822s9.999024-22.297822 22.297823-22.297822h267.073918c12.198809 0 22.297822 9.999024 22.297823 22.297822s-9.999024 22.297822-22.197833 22.297822zM645.586954 50.182599H378.413046c-12.198809 0-22.297822-9.999024-22.297823-22.297822s9.999024-22.297822 22.297823-22.297823h267.073918c12.198809 0 22.297822 9.999024 22.297823 22.297823s-9.999024 22.297822-22.197833 22.297822z"  horiz-adv-x="1024" />

    
    <glyph glyph-name="jianti" unicode="&#59095;" d="M716.8 819.2a230.4 230.4 0 0 0 230.4-230.4v-409.6a230.4 230.4 0 0 0-230.4-230.4H307.2a230.4 230.4 0 0 0-230.4 230.4V588.8a230.4 230.4 0 0 0 230.4 230.4h409.6m0 76.8H307.2A307.2 307.2 0 0 1 0 588.8v-409.6a307.2 307.2 0 0 1 307.2-307.2h409.6a307.2 307.2 0 0 1 307.2 307.2V588.8A307.2 307.2 0 0 1 716.8 896zM335.616 573.952a489.728 489.728 0 0 0-48.384-68.352L232.96 540.672a366.848 366.848 0 0 1 78.08 128l61.44-13.568-9.728-25.6H512v-55.808h-76.8a300.288 300.288 0 0 0 29.44-48.64l-56.32-21.504a535.296 535.296 0 0 1-39.424 70.144z m-61.952-143.36h63.744v-332.8h-63.744z m79.104 97.792a628.48 628.48 0 0 0 73.728-76.8l-47.104-32.512A768 768 0 0 1 307.2 499.456z m45.056-122.368h235.264v-241.92h-235.264z m60.672-94.464h114.944v43.008h-114.944z m114.944-94.72V261.12h-114.944v-44.288zM636.672 102.4l-15.36 57.856 54.016-2.048c12.8 0 19.2 8.96 19.2 25.6v261.12h-223.744v58.368H757.76V166.4c0-43.264-23.296-65.024-70.144-65.024z m-39.168 471.552a491.008 491.008 0 0 0-37.632-59.648l-54.016 35.072a338.432 338.432 0 0 1 63.232 119.808l60.928-13.568c-4.096-11.52-6.912-20.224-8.704-25.6h169.728v-55.808h-88.064a332.8 332.8 0 0 0 27.136-43.776l-56.576-21.504a533.504 533.504 0 0 1-37.376 65.28z"  horiz-adv-x="1024" />

    
    <glyph glyph-name="wodedangxuan" unicode="&#58888;" d="M961.72259555-133.29749332999995H59.94723555c-18.64135111 0-37.28270222 9.32067555-48.93354666 23.30168888-11.65084445 16.31118222-16.31118222 34.95253333-11.65084444 53.59388445 46.60337778 237.67722667 240.00739555 414.77006222 473.02428444 433.41141333 78.06065778 0 162.52928-9.90321778 246.99790222-44.27320888 24.46677333-9.90321778 32.62236445-16.31118222 46.60337778-23.3016889 135.14979555-76.89557333 228.35655111-209.7152 258.64874666-365.83651555 4.66033778-18.64135111 0-37.28270222-13.98101333-53.59388445-11.65084445-13.98101333-30.29219555-23.30168889-48.93354667-23.30168888zM61.11232-95.43224888999998c-7.57304889 0-14.56355555 2.91271111-18.64135111 8.15559111-0.58254222 0.58254222-0.58254222 1.16508445-1.16508444 1.74762667-5.82542222 5.82542222-6.40796445 15.72864-5.24288 21.55406222 43.10812445 221.36604445 224.27875555 387.39057778 440.98446222 403.11921778h17.47626666c104.27505778 0 204.47232-32.62236445 253.40586667-63.49710222C876.08888889 198.75157333000004 961.72259555 78.16533332999995 988.51953778-63.974968890000014c1.16508445-8.15559111-0.58254222-15.72864-6.40796445-23.30168889-4.07779555-5.24288-11.06830222-8.15559111-18.64135111-8.15559111H61.11232zM494.52373333 325.16323554999997c101.36234667 0 198.64689778-31.45728 245.83281778-61.16693333h0.58254222c124.66403555-73.98286222 207.38503111-191.07384889 233.01688889-329.71889777 0.58254222-2.91271111 0.58254222-6.99050667-4.07779555-12.23338667-0.58254222-1.16508445-3.49525333-2.33016889-6.99050667-2.33016889H61.11232c-3.49525333 0-6.40796445 1.16508445-6.99050667 2.33016889-0.58254222 1.16508445-1.74762667 2.33016889-2.91271111 2.91271111-1.16508445 1.16508445-2.33016889 4.66033778-1.16508444 8.73813333 41.94304 214.95808 217.28824889 375.73973333 427.58599111 391.46837333 5.24288-0.58254222 11.06830222 0 16.89372444 0m0 29.12711112c-5.82542222 0-12.23338667 0-18.05880888-0.58254222C252.76871111 337.39662222000004 66.3552 167.29429332999996 22.08199111-61.06225777999998c-2.33016889-11.65084445 0-25.63185778 9.32067556-34.95253333 6.99050667-9.32067555 18.64135111-13.98101333 30.29219555-13.98101334H963.47022222c11.65084445 0 23.30168889 4.66033778 30.29219556 13.98101334 6.99050667 9.32067555 11.65084445 20.97152 9.32067555 34.95253333-27.96202667 149.13080889-116.50844445 271.46467555-246.99790222 349.52533333-49.51608889 30.87473778-150.87843555 65.82727111-261.56145778 65.82727112zM512 356.03797333c-146.80064 0-267.96942222 121.16878222-267.96942222 267.96942222S365.19936 891.97681778 512 891.97681778s267.96942222-121.16878222 267.96942222-267.96942223S658.80064 356.03797333 512 356.03797333zM512 393.90321778c-126.99420445 0-230.10417778 103.10997333-230.10417778 230.10417777S385.00579555 854.11157333 512 854.11157333s230.10417778-103.10997333 230.10417778-230.10417778-103.10997333-230.10417778-230.10417778-230.10417777zM512 839.54801778c118.83861333 0 215.54062222-96.70200889 215.54062222-215.54062223S630.83861333 408.46677333 512 408.46677333s-215.54062222 96.70200889-215.54062222 215.54062222 96.70200889 215.54062222 215.54062222 215.54062223m0 29.12711111c-135.14979555 0-244.66773333-109.51793778-244.66773333-244.66773334s109.51793778-244.66773333 244.66773333-244.66773333 244.66773333 109.51793778 244.66773333 244.66773333S647.14979555 868.67512889 512 868.67512889z"  horiz-adv-x="1024" />

    
    <glyph glyph-name="shouzhi" unicode="&#59032;" d="M927.3856 506.2144c-14.2336 30.2592-40.1408 45.2608-73.728 45.6704-43.7248 0.4096-162.048 0.1536-205.7216 0.1536H425.984c11.9296 10.496 22.272 19.7632 33.0752 28.5184 41.6768 34.048 36.096 97.1264-19.968 121.4464-32.1024 13.9264-62.976 7.68-89.6-15.7184-48.896-42.752-97.536-85.6576-146.0224-128.4096a22.016 22.016 0 0 0-15.6672-6.144c-29.9008 0.3072-59.7504 0-89.6512 0.3072-5.4272 0-7.8336-0.9728-7.8336-7.3216 0.1536-142.2848 0.1536-284.7744 0-427.3152 0-5.3248 1.3312-6.7584 6.7584-6.7584 31.0784 0.1536 62.3104 0 93.3888 0.1536 5.5808 0 10.496-1.0752 15.2576-3.584 22.2208-12.1344 44.3904-23.9104 66.7136-35.84 4.096-2.304 8.192-3.2256 13.0048-3.2256h235.8784c8.6528 0 16.7424 1.3312 24.9856 3.4304 41.1648 9.984 56.064 41.472 53.9136 71.8848-1.024 13.312-5.9392 25.088-13.9264 35.84 27.4944 7.8336 49.152 22.1696 58.9824 49.3056 9.9328 27.904 2.2528 52.4288-17.8176 72.9088 39.424 26.9824 48.896 60.928 26.1632 103.3216h196.7104c9.1648 0 18.2272 0.8192 27.136 3.584 44.7488 13.4144 68.352 58.5728 49.92 97.792zM186.88 151.1424c0-6.3488-1.5872-7.936-7.8336-7.8336a1243.2896 1243.2896 0 0 1-49.8176 0c-4.7616-0.1024-5.8368 1.1776-5.8368 5.9904 0.1536 121.8048 0.1536 243.6096 0 365.2608 0 4.9152 1.1776 6.4 6.2464 6.2464 16.896-0.256 33.7408-0.256 50.5856 0 5.4784 0.1536 6.656-1.4848 6.656-6.7584-0.1536-60.5696-0.1536-121.0368-0.1536-181.6064 0-60.2624-0.256-120.832 0.1536-181.248z m713.5232 329.9328c-1.7408-16.4352-17.5104-32.4096-36.1472-35.84a82.688 82.688 0 0 0-15.104-1.1776c-60.16-0.1536-195.3792-0.1536-255.5392 0.1024-6.4 0-8.9088-1.5872-7.8336-7.9872 0.1024-0.9216 0-1.9456 0-3.072 0-6.3488-1.7408-13.3632 0.3584-18.944 2.4064-6.144 11.1616-3.072 16.7424-5.7344 6.2464-2.9184 12.4928-5.9904 17.5616-10.752 19.456-18.3296 15.2576-47.2576-8.6528-61.2352-10.9056-6.2464-22.7328-7.424-34.816-6.656-5.8368 0.3072-8.704-1.024-7.5776-7.424 0.1536-1.1776 0-2.6624 0-3.84 0-6.3488-1.536-13.312 0.4096-18.9952 2.56-6.656 11.0592-2.816 16.5888-5.4272 6.912-3.584 13.824-6.656 19.1488-12.4928 26.3168-28.3136 1.024-59.904-23.3984-64.9728-13.6704-2.9184-27.3408-0.9216-41.1648-1.536-6.144-0.3072-13.9264 2.6112-17.5104-1.1264-3.84-3.6864-0.8192-11.6736-1.2288-17.664v-0.768c0-11.9808 0-11.7248 11.264-14.6432a47.616 47.616 0 0 0 25.6-14.592c8.6016-10.0864 13.6192-21.8112 8.6016-35.1744a44.0832 44.0832 0 0 0-34.4064-29.2352 77.824 77.824 0 0 0-13.6704-1.3312c-75.3152 0-150.6304 0-225.9456-0.1536a23.296 23.296 0 0 0-12.2368 3.1744 4978.7904 4978.7904 0 0 1-57.088 34.048c-3.9936 2.2528-5.7344 4.608-5.7344 9.4208 0.1536 126.8224 0.1536 253.696 0 380.672 0 3.9936 0.6656 7.0144 3.9936 9.984 49.2544 43.1616 98.56 86.7328 147.712 130.048 16.896 14.848 36.096 17.2544 56.32 9.6768 29.696-11.1616 35.7376-43.8272 12.0832-65.1264-27.904-25.088-56.064-49.7664-84.224-74.5984-3.84-3.584-7.8336-7.0656-13.4144-12.288h508.7232c7.68 0 15.104-0.768 22.528-3.7888 18.8928-7.4752 29.9008-23.2448 28.0576-40.5504z"  horiz-adv-x="1024" />

    
    <glyph glyph-name="zhuye1" unicode="&#58887;" d="M67.452148 130.416782a30.137242 30.137242 0 0 0 52.322075 29.864197l1.262829-2.218483a30.103111 30.103111 0 1 0-52.151422-30.103111l-1.433482 2.457397z m76.315825-101.777187a30.103111 30.103111 0 1 0 43.34575 41.809877 451.683194 451.683194 0 1 1-113.210908 204.441766 30.103111 30.103111 0 0 0-58.499697-14.437206 511.923548 511.923548 0 1 0 128.330724-231.882698v0.068261z m368.575398 190.00456l-177.819967-93.449342a6.00697 6.00697 0 0 0-8.771542 6.314145l33.95986 198.02523-143.928369 140.310534a6.00697 6.00697 0 0 0 3.378921 10.239154l198.878492 28.908543 88.875853 180.140842a6.00697 6.00697 0 0 0 10.853503 0l88.875853-180.140842 198.878493-28.908543a6.00697 6.00697 0 0 0 3.310659-10.239154l-143.894238-140.310534 33.95986-198.02523a6.00697 6.00697 0 0 0-8.703281-6.314145l-177.854097 93.449342z"  horiz-adv-x="1024" />

    
    <glyph glyph-name="MoreoptionsVertica" unicode="&#59025;" d="M399.36 384c0-39.936-31.744-71.68-71.68-71.68s-71.68 31.744-71.68 71.68 31.744 71.68 71.68 71.68 71.68-31.744 71.68-71.68z m112.64 71.68c-39.936 0-71.68-31.744-71.68-71.68s31.744-71.68 71.68-71.68 71.68 31.744 71.68 71.68-31.744 71.68-71.68 71.68z m184.32 0c-39.936 0-71.68-31.744-71.68-71.68s31.744-71.68 71.68-71.68 71.68 31.744 71.68 71.68-31.744 71.68-71.68 71.68z m276.48-71.68c0-253.952-206.848-460.8-460.8-460.8S51.2 130.048 51.2 384 258.048 844.8 512 844.8s460.8-206.848 460.8-460.8z m-40.96 0C931.84 615.424 743.424 803.84 512 803.84S92.16 615.424 92.16 384s188.416-419.84 419.84-419.84 419.84 188.416 419.84 419.84z"  horiz-adv-x="1024" />

    
    <glyph glyph-name="tag7" unicode="&#58927;" d="M0 527.68V-128l256 256h1344a384 384 0 0 1 0 768H384A384 384 0 0 1 0 527.68z"  horiz-adv-x="1984" />

    
    <glyph glyph-name="jianshu1" unicode="&#58907;" d="M260.102 805.875l69.44-21.82c-9.259-19.395-17.36-38.79-24.304-58.185h211.79v-69.095H395.51c18.518-24.244 37.035-50.913 55.552-80.005l-72.912-40.003a1168.76 1168.76 0 0 1-62.495 120.008h-45.136l-38.191-61.822c-13.888-19.396-32.405-41.215-55.552-65.46l-62.496 47.277c67.126 67.883 115.733 144.25 145.823 229.105z m361.086 0l65.967-21.82c-6.944-19.395-15.045-38.79-24.304-58.185h246.51v-69.095h-142.35c18.517-24.244 34.72-49.7 48.607-76.369l-62.495-40.002c-20.832 41.215-42.821 80.005-65.968 116.37h-55.551c-23.147-43.639-53.237-84.853-90.272-123.644l-62.495 47.276c64.81 67.884 112.26 143.04 142.35 225.469zM298.294 551.313c32.405-31.517 59.023-65.458 79.855-101.824l-65.967-36.366c-16.203 33.942-40.506 67.883-72.912 101.825l59.024 36.365z m118.047-32.729h447.885v-458.21c0-31.518-6.944-55.762-20.832-72.733-13.888-16.97-34.72-25.456-62.496-25.456-23.146 0-50.922 1.212-83.327 3.637l-17.36 69.095c37.035-2.424 67.125-3.636 90.272-3.636 16.202 0 24.303 16.97 24.303 50.912V456.762H416.341v61.822z m-236.094-98.188h69.44v-458.21h-69.44v458.21z m489.548-40.002v-312.748H350.374V380.394h319.421z m-65.967-123.645v61.822H416.34v-61.822h187.487zM416.34 198.564v-69.095h187.487v69.095H416.34z"  horiz-adv-x="1024" />

    


  </font>
</defs>
</svg>
